<?xml version="1.0" standalone="no"?>
<!DOCTYPE svg PUBLIC "-//W3C//DTD SVG 1.1//EN" "http://www.w3.org/Graphics/SVG/1.1/DTD/svg11.dtd" >
<svg xmlns="http://www.w3.org/2000/svg" xmlns:xlink="http://www.w3.org/1999/xlink" version="1.1">
<metadata>
Created by FontForge 20170731 at Wed Apr 15 17:30:59 2020
 By Aleksey,,,
Copyright 1997 Tony Ostyn: Font Guy 818/980-9884
</metadata>
<defs>
<font id="SpongeboyRegular" horiz-adv-x="20" >
  <font-face 
    font-family="Spongeboy"
    font-weight="500"
    font-stretch="normal"
    units-per-em="2048"
    panose-1="0 0 0 0 0 0 0 0 0 0"
    ascent="1638"
    descent="-410"
    x-height="1364"
    cap-height="2048"
    bbox="-2258 -907 2623 2561"
    underline-thickness="50"
    underline-position="-150"
    unicode-range="U+0020-25FD"
  />
<missing-glyph horiz-adv-x="457" 
d="M20 675h417v-675h-417v675zM68 48h320v579h-320v-579z" />
    <glyph glyph-name=".notdef" horiz-adv-x="457" 
d="M20 675h417v-675h-417v675zM68 48h320v579h-320v-579z" />
    <glyph glyph-name=".notdef" horiz-adv-x="457" 
d="M20 675h417v-675h-417v675zM68 48h320v579h-320v-579z" />
    <glyph glyph-name=".null" horiz-adv-x="0" 
 />
    <glyph glyph-name="nonmarkingreturn" horiz-adv-x="682" 
 />
    <glyph glyph-name="space" unicode=" " horiz-adv-x="713" 
 />
    <glyph glyph-name="exclam" unicode="!" horiz-adv-x="571" 
d="M45 1923q250 105 419 107q98 -2 86 -58q-42 -227 -68 -437q-26 -203 -44 -450q-23 -317 -26 -356q-10 -127 -15 -156h-1l-3.5 -0.5t-7.5 -0.5q-16 -2 -43 -3q-28 -1 -58 -3q-19 -1 -51 -1q-124 0 -129 29q22 129 31 228q10 107 10 229q0 147 -24 363q-27 226 -76 509z
M65 0q7 93 14 217q5 83 0 111q38 -5 342 -68q0 -87 97 -260h-453z" />
    <glyph glyph-name="quotedbl" unicode="&#x22;" horiz-adv-x="910" 
d="M116 1772q0 48 19 71l264 -8q20 -60 20 -129q0 -72 -30 -96q-19 -18 -80 -209q-61 -186 -78 -184q-11 7 -31 204q-23 197 -26 199q-57 43 -58 152zM587 1769q0 55 19 80l262 -8q23 -66 22 -141q0 -80 -30 -105q-18 -17 -82 -211q-15 -47 -27.5 -81.5t-22.5 -57t-17 -33.5
t-11 -10q-11 7 -31 205q-18 197 -26 199q-54 40 -56 163z" />
    <glyph glyph-name="numbersign" unicode="#" horiz-adv-x="2643" 
d="M63 72q92 56 309 532q88 193 191 448q90 223 175 461q174 493 152 596l455 -151q-94 -88 -451 -944q-367 -879 -367 -1069q0 -24 7 -31zM1014 15q92 56 309 532q88 193 191 448q90 223 175 461q174 493 152 596l455 -151q-94 -88 -451 -944q-367 -879 -367 -1069
q0 -24 7 -31zM2623 1324q-139 4 -2468 -29q3 3 11 13q4 5 4 17q0 79 -221 247l2427 31q31 -30 118 -130q91 -103 129 -149zM-116 586q138 -4 2468 29q-10 -13 -11 -14q-4 -4 -4 -16q0 -77 221 -243l-2428 -30q-18 17 -37 38t-42.5 47t-38.5 42q-90 102 -128 147z" />
    <glyph glyph-name="dollar" unicode="$" horiz-adv-x="1588" 
d="M310 63q0 124 170 568q294 -133 453 -133q135 0 135 104q0 33 -12 72q8 6 8 14q0 27 -145 100q-189 97 -273 166q-147 122 -147 248q0 34 10 70q22 81 93 131q68 47 177 47h9l604 -6q116 -221 116 -306q0 -14 -4 -26q-2 -2 -18 -2q-32 0 -84 4q-13 1 -117 7q-51 3 -90 3
q-281 0 -281 -92q0 -14 3 -20q5 -24 176 -140q209 -141 313 -254q164 -180 162 -360l-277 -258q-6 -2 -115 -2q-39 0 -325 2q-444 1 -528 23q-12 10 -13 40zM872 1252q9 30 33 518q3 -1 8 -2.5t8 -1.5q8 -3 19 -3q86 -11 289 10l-30 -509q-70 -4 -152 -6q-74 -3 -175 -6z
M846 -331q5 36 -32 519q2 0 4.5 -1t5 -1.5t5.5 -0.5h18q89 0 273 46l34 -510q-8 -2 -143 -25q-75 -14 -165 -27z" />
    <glyph glyph-name="percent" unicode="%" horiz-adv-x="1611" 
d="M132 1459q0 55 14 99q15 46 42 56q14 5 52 9q8 1 23.5 2.5t22.5 1.5q8 0 23 0.5t22 0.5q91 0 135 -21q36 -17 59 -83q11 -28 15 -54q6 -22 4 -45q-2 -69 -73 -105q-60 -32 -151 -32q-89 0 -143 29q-22 12 -34 53q-11 39 -11 89zM257 1555q0 -39 15 -105q7 -30 12 -50
q7 -26 13 -43q7 -25 34 -36q15 -6 31 -6q49 1 49 105q0 51 -12 108q-11 52 -21 63q-10 10 -50 10q-29 0 -56 -6q-15 -3 -15 -40zM1179 333q0 59 13 98q15 47 42 56q13 4 53 9q15 2 45 4q15 1 45 1q93 0 136 -21q34 -15 58 -83q12 -34 16 -53q5 -28 4 -45q-3 -69 -74 -106
q-61 -32 -150 -32q-88 0 -143 29q-24 13 -34 53q-11 36 -11 90zM1304 428q0 -38 15 -105q4 -18 12 -50q8 -30 12 -43q9 -26 34 -36q13 -5 32 -5q48 0 48 105q0 56 -11 107q-10 50 -22 64q-9 10 -50 10q-30 0 -55 -6q-15 -3 -15 -41zM142 406q78 14 352 279q117 113 250 254
q122 127 242 266q252 289 265 365l261 -225q-89 -35 -558 -521q-485 -500 -538 -629q-6 -15 -3 -23z" />
    <glyph glyph-name="ampersand" unicode="&#x26;" horiz-adv-x="1822" 
d="M20 567q0 91 84 183q9 11 53 50q16 14 105 89q83 72 82 106q-1 25 -101 99q-55 39 -96 88q-37 44 -64 100q-41 94 -40 174q0 170 151 285q163 121 475 139q36 2 53 3t48 1q306 0 460 -117q131 -98 181 -301q6 -20 6 -39q0 -91 -109 -188q-28 -25 -78 -60
q-57 -41 -120 -83q-109 -72 -109 -92q0 -7 4 -11q32 -42 117 -112q34 -27 80 -73q32 -32 65 -79q2 -2 6 -2q25 0 136 162q113 162 135 162q4 0 8 -4q10 -20 151 -185q109 -127 99 -157q-6 -19 -174 -89q-170 -68 -178 -88q-14 -20 131 -141q150 -123 149 -154q0 -4 -4 -8
q-92 -116 -240 -241q-4 -4 -8 -4q-30 0 -145 153q-118 154 -137 154q-4 0 -9 -6q-41 -125 -225 -197q-162 -66 -362 -66q-193 0 -275 64q-117 90 -203 215q-102 151 -102 270zM323 399q0 -166 96 -166q41 0 136 -12q96 -12 139 -12q121 0 121 84q0 7 12 110t12 175
q0 178 -74 190q-81 14 -162 25q-69 8 -100 8q-82 0 -120 -29.5t-31 -87.5q0 -2 -0.5 -6t-1 -12t-0.5 -15q-1 -23 -11 -80q-7 -53 -12 -96q-4 -39 -4 -76zM464 1499q0 -16 5 -51q1 -7 4.5 -32t5.5 -40q9 -47 13 -88q2 -18 5 -49q5 -35 170 -35q70 0 193 6q105 6 128 8
q44 3 48 3q61 4 61 172v41q0 13 -2 59t-2 59v37q0 23 -27 26q-29 3 -83 3q-29 0 -83 -3q-12 -1 -58.5 -3t-76.5 -4q-31 -2 -78 -4t-61 -3q-51 -4 -92 -4q-70 0 -70 -98z" />
    <glyph glyph-name="quotesingle" unicode="'" horiz-adv-x="384" 
d="M61 1794q0 54 18 80l263 -8q23 -66 22 -142q0 -80 -31 -104q-17 -18 -82 -211q-16 -47 -28 -81t-21.5 -57.5t-16.5 -34t-11 -9.5q-11 7 -31 205q-23 196 -27 198q-55 40 -55 164z" />
    <glyph glyph-name="parenleft" unicode="(" horiz-adv-x="871" 
d="M20 1014q-6 141 47 391q17 79 42 178q20 81 56 207q53 188 54 188q44 -6 632 70q-11 -51 -155 -219q-91 -107 -159 -197q-67 -87 -107 -149q-145 -226 -154 -420q-11 -252 141 -569q134 -280 330 -494h-459q-33 95 -70 215q-10 32 -30.5 97t-30.5 98q-131 440 -137 604z
" />
    <glyph glyph-name="parenright" unicode=")" horiz-adv-x="871" 
d="M20 2048q588 -76 633 -70q0 -2 12 -42q8 -27 41 -119q31 -90 58 -184q23 -87 42 -173q51 -241 45 -446q-18 -489 -268 -1014h-459q139 164 244 336q242 401 227 727q-7 187 -153 420q-38 63 -107 153q-86 109 -161 197q-147 172 -154 215z" />
    <glyph glyph-name="asterisk" unicode="*" horiz-adv-x="607" 
d="M81 1556q0 32 16 47l230 -5q22 -37 20 -82q0 -48 -27 -61q-17 -11 -72 -122q-54 -109 -68 -106q-10 4 -27 119q-19 113 -24 115q-48 24 -48 95zM-107 1189q-32 1 -44 14l10 179q36 16 78 13q44 -2 57 -23q9 -12 113 -60q101 -45 98 -55q-2 -7 -112 -18q-109 -12 -109 -15
q-23 -37 -91 -35zM515 1395q28 6 45 -4l27 -178q-33 -22 -74 -29q-43 -7 -60 11q-12 11 -124 36q-107 23 -107 34q3 8 107 41q103 33 104 37q15 40 82 52zM86 949q-19 -23 -37 -26l-138 115q10 40 36 70q27 35 52 32q17 0 116 56q97 53 103 45q3 -7 -53 -101
q-55 -93 -53 -97q16 -40 -26 -94zM459 1046q18 -23 16 -42l-147 -104q-36 21 -58 54q-27 34 -17 58q4 16 -24 127q-27 107 -17 111q9 1 84 -77q76 -77 79 -77q44 4 84 -50z" />
    <glyph glyph-name="plus" unicode="+" horiz-adv-x="1153" 
d="M151 923q58 -5 907 31q-2 -6 -4 -14q-2 -5 -2 -18q0 -83 81 -260l-891 -32q-17 46 -44 136q-29 92 -47 157zM530 312q2 55 -78 903q2 -1 6.5 -2t7.5 -1q8 -1 18 0q83 4 256 94l78 -889q-24 -10 -71 -27t-62 -23q-2 -1 -62 -22.5t-93 -32.5z" />
    <glyph glyph-name="comma" unicode="," horiz-adv-x="626" 
d="M161 307q45 -6 346 39q17 -27 33 -51q22 -34 31 -51q35 -64 35 -152q0 -63 -20 -148q-20 -79 -62 -186q-11 -24 -39 -34q-29 -12 -45 -43q12 56 12 112q0 211 -170 211q-16 0 -25 -1q-5 -1 -14.5 -2t-13.5 -1q-27 106 -68 307z" />
    <glyph glyph-name="hyphen" unicode="-" horiz-adv-x="878" 
d="M131 911q43 -6 671 43q0 -3 -1 -10t-2 -10q-1 -7 -1 -25q0 -115 60 -362l-660 -45q-10 51 -32 190q-23 141 -35 219z" />
    <glyph glyph-name="period" unicode="." horiz-adv-x="675" 
d="M161 348q45 -6 439 45q0 -3 -1 -10t-2 -10q-2 -14 -2 -23q0 -106 60 -303l-426 -47q-10 42 -32 158q-9 44 -36 190z" />
    <glyph glyph-name="slash" unicode="/" horiz-adv-x="1345" 
d="M43 72q92 56 309 532q88 193 191 448q90 223 175 461q174 493 152 596l455 -151q-94 -88 -451 -944q-367 -879 -367 -1069q0 -24 7 -31z" />
    <glyph glyph-name="zero" unicode="0" horiz-adv-x="1603" 
d="M225 918q0 306 45 530q50 249 139 301q42 25 172 49q77 14 151 21q74 6 148 6q301 0 447 -113q112 -84 192 -446q37 -166 52 -288q17 -132 12 -243q-8 -369 -242 -569q-199 -172 -496 -172q-291 0 -471 156q-75 64 -112 286q-37 204 -37 482zM637 1432q0 -201 50 -566
q14 -101 40 -270q22 -143 41 -231q27 -138 111 -193q49 -32 104 -31q160 6 160 566q0 280 -37 579q-36 281 -71 344q-32 53 -166 53q-95 0 -182 -32q-48 -18 -50 -219z" />
    <glyph glyph-name="one" unicode="1" horiz-adv-x="857" 
d="M196 0q13 94 41 280q26 174 41 279q55 400 55 612q0 183 -41 242q0 13 -36 33q-37 22 -37 33q-6 160 -8 190q-2 27 -4.5 58.5t-2.5 37.5q45 -6 633 70q-21 -140 -43 -591q-25 -483 -47 -1244h-551z" />
    <glyph glyph-name="two" unicode="2" horiz-adv-x="1840" 
d="M90 1255q31 28 157 471q2 0 244 68q174 47 320 47q207 0 458 -84q55 -18 121 -151q48 -97 86 -234q5 -19 15 -59q5 -25 14 -60q1 0 -102 -89.5t-316 -274.5q-421 -367 -408 -381q82 -100 334 -100q324 0 807 149l-160 -518q-7 -1 -71.5 -10t-104.5 -15q-10 -1 -91 -13
t-132 -19q-103 -16 -307 -43q-710 -102 -711 -101l-14 574l842 860q-57 82 -277 82q-93 0 -201 -13q-106 -13 -256 -41q-240 -45 -247 -45z" />
    <glyph glyph-name="three" unicode="3" horiz-adv-x="1510" 
d="M83 1231q30 27 164 495q170 32 345 49q170 15 335 15q275 0 424 -55q68 -26 68 -187q0 -91 -19 -192q-16 -90 -22 -90q-5 4 -256 -43q-268 -49 -287 -88q155 -76 257 -136q109 -64 181 -127q238 -196 215 -421q-27 -281 -280 -408q-98 -48 -212 -70q-118 -24 -265 -24
q-66 0 -121 4q-64 5 -121 12q-86 12 -102 17l-271 491q295 -76 522 -76q324 0 324 178v91q0 38 -4 53q-12 81 -55 112q-65 53 -205 95q-27 7 -80 18q-51 10 -123 21q-80 15 -79 25q0 2 1 3q68 81 414 277q63 34 169 94q106 59 169 94q-47 35 -143 35q-141 0 -379 -70
q-74 -21 -172 -54t-209 -75q-178 -68 -183 -63z" />
    <glyph glyph-name="four" unicode="4" horiz-adv-x="1674" 
d="M112 1343q0 427 4 439l649 116q7 -16 9 -51q0 -107 -142 -536q-143 -432 -143 -574q0 -18 1 -25q1 -8 3 -22q14 -20 88 -20q78 0 170 22q93 27 119 58q26 32 63 516q20 239 34 356.5t24 116.5q-6 4 19 6h22q106 0 239 -19q163 -19 209 -55q4 -11 4 -31q0 -86 -71 -483
q-75 -409 -80 -473q10 0 41 3q17 2 84 11q50 7 92 12q39 3 61 3q26 0 43 -4v-146q-5 -50 -37 -63q-84 -25 -164 -42q-75 -17 -157 -28q-2 4 -12 -24q-14 -44 -15 -150q0 -102 13 -236q-54 -2 -162.5 -4.5t-147.5 -3.5q-166 -4 -364 -12q-8 0 -8 18q0 40 45 218
q26 107 35 145q12 53 12 74q0 20 -8 20q-182 -37 -302 -37q-153 0 -184 64q-86 167 -86 841z" />
    <glyph glyph-name="five" unicode="5" horiz-adv-x="1662" 
d="M69 436q368 -133 619 -133q164 0 245 66q47 41 48 159q0 59 -17 95q-49 94 -407 94q-50 0 -79 -1q-41 -1 -98 -3q-53 -1 -89 -3q-23 -1 -52 -1q-77 0 -69 14q5 47 10 198q4 144 6 386q4 489 -10 497q22 17 155 19q55 0 152 -3q96 -3 237 -12q78 -4 194 -10.5t153 -8.5
q134 -8 190 -9q-6 -175 -37 -385q-9 -64 -16 -108t-11.5 -65t-7.5 -20q-65 32 -139 72q-70 38 -141 69q-164 73 -283 104q-125 32 -209 23q-20 -14 -20 -75q0 -43 18 -170q9 -68 10 -96q2 -39 0 -62q390 6 744 -86q385 -100 457 -262q20 -45 20 -123q0 -89 -29 -188
q-33 -103 -75 -152q-66 -117 -375 -186q-110 -27 -245 -45q-126 -18 -294 -31q-264 -20 -278 -12z" />
    <glyph glyph-name="six" unicode="6" horiz-adv-x="1576" 
d="M34 985q7 317 121 553q107 218 268 303q112 0 302 25q201 26 245 24q-31 -30 -95 -90q-43 -40 -93 -92q-92 -99 -134 -189q-42 -91 -42 -178q0 -53 18 -102q140 86 348 86q190 0 363 -63q164 -57 190 -125q31 -75 31 -203q0 -110 -20 -233q-20 -118 -62 -252
q-83 -261 -180 -343q-96 -82 -451 -81q-371 0 -483 94q-343 281 -326 866zM352 655q0 -160 12 -274q2 -34 174 -80q177 -47 277 -47q53 0 61 14q26 38 76 316q51 270 51 381q0 23 -100 36q-51 7 -108 12q-59 3 -122 3q-217 0 -268 -33q-53 -35 -53 -328z" />
    <glyph glyph-name="seven" unicode="7" horiz-adv-x="1416" 
d="M90 1497q0 185 1 236q0 10 0.5 19.5t0.5 16.5v13.5v9.5v6.5v3.5q164 39 546 39q464 1 758 -67q-34 -130 -96 -312q-70 -207 -152 -415q-16 -43 -125 -321q-135 -345 -286 -726q-35 -5 -104 0q-97 6 -175 14q-228 26 -264 56q117 218 514 802q142 208 232 377
q87 167 118 281q-14 2 -22 3t-27 1q-132 0 -426 -131q-230 -104 -329 -147q-100 -44 -148 -62q-16 48 -16 303z" />
    <glyph glyph-name="eight" unicode="8" horiz-adv-x="1678" 
d="M55 1208q0 226 166 404q187 201 499 219q24 2 37 2h37q292 0 492 -129q184 -122 225 -303q6 -27 6 -51q0 -78 -63 -158q-14 -16 -42 -45q-31 -31 -73 -66q-59 -51 -57 -75q6 -33 108 -72q73 -28 116 -46q44 -19 68 -36q94 -64 84 -162q-18 -168 -106 -315
q-104 -179 -291 -291q-155 -92 -399 -92q-148 0 -293 35q-144 38 -209 92q-192 155 -236 393q-2 14 -2 31q0 82 82 149q32 26 156 99q84 47 80 81q-5 23 -94 56q-127 45 -176 73q-97 58 -111 142l-3 33q-1 11 -1 32zM407 414q0 -123 78 -123q21 0 57 -4q58 -6 105 -13
q129 -18 192 -18q142 0 142 72q0 6 24 118q27 110 27 183q0 137 -97 137q-23 0 -62 3q-7 0 -41 2.5t-56 4.5q-117 12 -170 12q-85 0 -125 -22.5t-35 -67.5q0 -12 -18 -114q-10 -52 -15 -96q-6 -43 -6 -74zM677 1468q0 -63 29 -208q7 -35 25 -123q2 -11 4.5 -25.5t4 -22.5
t1.5 -12q1 -33 123 -33q9 0 55 2q32 1 82 3q98 6 139 6q70 0 70 159q0 41 -4 89q-5 55 -12 122q-2 20 -6 59.5t-6 55.5q-5 48 -5 59q0 27 -70 27q-15 0 -53 -3q-12 -1 -44 -3t-52 -4q-18 -1 -105 -7q-47 -3 -81 -3q-94 0 -95 -138z" />
    <glyph glyph-name="nine" unicode="9" horiz-adv-x="1634" 
d="M108 815q0 223 72 514q76 311 174 387q161 123 502 123q186 0 352 -41q163 -44 207 -110q81 -116 143 -361q65 -266 55 -489q-13 -416 -186 -639q-64 -82 -142 -136q-82 -58 -186 -83q-59 -14 -117 -24q-19 -3 -58.5 -11t-59.5 -11q2 2 2 7q0 14 -82 96q-80 79 -90 135
q22 30 141 121q66 49 111 90q42 38 73 72q90 100 82 178q-155 -170 -440 -170q-187 0 -348 69q-163 72 -191 154q-14 42 -14 129zM591 981q0 -311 50 -311q90 0 348 243q270 253 258 357q-6 52 -121 231q-122 190 -176 185q-64 -6 -203 -154q-147 -154 -147 -248v-2
q0 -2 -0.5 -8.5t-0.5 -14.5q0 -6 -1.5 -34t-2.5 -49q-1 -46 -3 -104q-1 -33 -1 -91z" />
    <glyph glyph-name="colon" unicode=":" horiz-adv-x="583" 
d="M170 1190q-6 28 32 92q41 67 41 72q15 -3 83 -5q37 -1 167 1q-1 -3 -2 -10t-1 -10q-1 -7 -1 -23q0 -98 59 -263l-333 -40q-1 3 -7 28t-10 43q-9 33 -28 115zM229 0q29 345 22 393q19 -5 84 -15q46 -7 172 -32q-23 -110 56 -305z" />
    <glyph glyph-name="semicolon" unicode=";" horiz-adv-x="620" 
d="M116 1393q44 -6 381 39q-1 -4 -2 -10t-1 -10q-1 -7 -1 -23q0 -98 59 -263l-157 -12l-230 -143zM161 307q45 -6 346 39q91 -156 93 -291q0 -127 -60 -288q-11 -32 -43 -33q-34 -6 -57 -53q12 56 12 112q0 211 -170 211q-16 0 -25 -1q-5 -1 -14.5 -2t-13.5 -1
q-27 106 -68 307z" />
    <glyph glyph-name="less" unicode="&#x3c;" horiz-adv-x="1160" 
d="M-5 647l619 799l381 -543l-588 -229l733 -129l-243 -615z" />
    <glyph glyph-name="equal" unicode="=" horiz-adv-x="1425" 
d="M131 1175q89 -4 1123 24q-4 -8 -5 -11q-2 -4 -2 -14q0 -64 100 -200l-1104 -25q-21 37 -53 105q-35 68 -59 121zM188 586q89 -4 1123 24q-1 -2 -2.5 -6t-2.5 -6q-2 -3 -2 -13q0 -63 101 -200l-1105 -25q-21 37 -53 105q-35 68 -59 121z" />
    <glyph glyph-name="greater" unicode="&#x3e;" horiz-adv-x="1289" 
d="M145 999l508 355l616 -672l-690 -770l-418 541l604 223z" />
    <glyph glyph-name="question" unicode="?" horiz-adv-x="1648" 
d="M20 1604q168 137 285 182q7 4 54 15q21 5 132 32q74 16 166 16q184 0 659 -98q73 -85 128 -154q42 -53 71 -96q113 -161 113 -233q0 -14 -6 -31q-46 -123 -199 -180q-70 -26 -143 -48q-68 -21 -142 -48q-89 -33 -145 -80q-59 -49 -94 -111q-24 -41 -45 -88
q-29 -64 -46 -109q-50 -130 -65 -155q-86 62 -143 186q-50 110 -52 203q0 28 7 41q22 70 174 115q79 25 143 41q78 20 141 40q157 46 201 117q0 142 -98 279q-117 160 -291 166q-163 6 -326 -160q-134 -136 -166 -258q-105 29 -196 174q-48 79 -117 242zM552 252
q35 -6 439 35q-1 -3 -2 -9.5t-1 -10.5q-1 -7 -1 -21q0 -93 55 -203l-426 -37q-14 46 -30 108q-21 76 -34 138z" />
    <glyph glyph-name="at" unicode="@" horiz-adv-x="1652" 
d="M466 1196q0 -2 1 -2q6 0 27 197q18 18 104 32q30 5 88 11q30 2 95 2q176 0 244 -38q17 -9 62 -212q22 -98 38 -203q11 -94 11 -160q0 -121 -41 -147q-20 -13 -197 -37q-5 0 -11 24q-6 25 -11 25q-73 -8 -104 -10q-48 -3 -92 -3q-137 0 -161 34q-10 14 -17 96q-4 52 -5 78
q-2 25 -2 73q0 33 2 45q1 17 3 25q9 28 210 40q212 15 232 32q3 2 3 11q0 21 -15 68q-17 50 -28 65q-6 7 -28 9q-38 0 -144 -33q-1 0 -1 -4q0 -5 4 -25q5 -19 5 -26q0 -4 -1 -4q-20 -7 -55 -7q-54 0 -140 20q-71 18 -76 24zM765 891q0 -65 8 -87q9 -26 88 -26q87 0 105 25
q19 25 19 111q0 40 -8 48h1q-5 6 -16 10q-10 3 -29 6q-36 6 -79 6q-62 0 -75 -13q-14 -13 -14 -80zM77 1098q-3 88 28 235q8 37 24 107q19 71 34 124l31 113q25 -4 373 42q-6 -31 -91 -132q-58 -69 -94 -118q-39 -51 -63 -90q-85 -134 -91 -252q-6 -149 83 -341
q79 -168 195 -297h-271q-23 69 -41 129q-20 62 -36 117q-78 264 -81 363zM825 1810q89 -2 229 -41q14 -4 31 -9t38.5 -11.5t34.5 -10.5q35 -11 120 -41q109 -37 109 -39q-5 -26 19 -376q-29 9 -124 100q-47 46 -110 101q-44 38 -84 68q-131 96 -243 106q-149 15 -341 -63
q-168 -69 -304 -177l17 271q56 16 129 34q13 3 54.5 13.5t63.5 15.5q264 62 361 59zM1577 1175q25 -76 38 -211q1 -11 3.5 -45.5t3.5 -54.5q1 -11 6 -118l4 -107q-19 -3 -283 -144q-3 26 38 140q28 76 44 130q18 55 27 96q33 142 7 245q-33 132 -152 272q-107 123 -229 200
l213 79q22 -31 65 -100q11 -17 30.5 -47t28.5 -44q127 -206 156 -291zM1165 598q-30 20 -77 70q-5 6 -32 37q-27 32 -36 43q-33 39 -32 40q8 8 73 128q9 -9 24 -63q7 -25 20 -61q7 -21 17 -44q28 -63 68 -95q50 -41 140 -64q80 -20 151 -17l-64 -85q-38 14 -55 21
q-18 7 -50 19q-114 48 -147 71z" />
    <glyph glyph-name="A" unicode="A" horiz-adv-x="1551" 
d="M20 27l389 1458l-254 -12l15 507l1056 37l305 -2019l-571 -27l-8 490h-488l-8 -422zM665 827l479 25l-141 766l-233 -14z" />
    <glyph glyph-name="B" unicode="B" horiz-adv-x="1377" 
d="M40 -35l37 1999q208 41 570 41q98 0 176 -3q90 -3 135 -7q51 -7 104 -47l45 -33q28 -22 43 -31q58 -39 87 -155q18 -71 18 -123q0 -11 -2 -31q-3 -41 -7.5 -97t-5.5 -70q-7 -67 -10 -83q-13 -95 -63 -151q-311 -120 -461 -127q4 -1 57 -15t156 -39q185 -45 328 -135
q42 -98 68 -212q27 -125 34 -265q3 -48 5 -144q1 -49 3 -145zM270 393q41 0 68 -1q40 -2 96 -3q59 -2 101 -3q29 -1 79 -1q118 0 234 10q114 9 251 29q-1 13 -2.5 36.5t-1.5 34.5q-2 34 -6 62q-13 136 -35 184q-52 34 -383 62q-100 9 -214 16q-38 2 -181 10zM380 1225
q10 0 23 -1q17 -1 47 -3q28 -1 54 -3q16 -1 42 -1q114 0 146 32q30 35 30 206v11v13q0 253 -38 309q-14 20 -99 20q-33 0 -83 -3q-39 -2 -122 -11v-569z" />
    <glyph glyph-name="C" unicode="C" horiz-adv-x="1513" 
d="M63 999q1 185 6 312q5 138 10 202q22 259 80 342q122 53 580 105q384 43 577 43h31q46 -178 62 -334l9 -108q2 -22 19 -252l-555 -23q1 22 5 89q3 45 14 104q9 56 16 120q1 9 10 99q-23 6 -69 22q-67 15 -154 17q-80 0 -168 -13q-47 -238 -47 -520q0 -119 7 -235
q8 -139 22 -271q14 -147 21 -228q7 -76 7 -99q159 -62 222 -64q16 0 47 6q35 6 61 6l25 318l592 -14q-5 -24 -13 -99q-8 -80 -14 -182q-6 -89 -20 -169q-16 -80 -40 -140h-36q-117 0 -248 10q-173 13 -365 37q-484 62 -610 143q-31 125 -48 201q-17 72 -22 104
q-10 68 -13 189q-2 94 -2 158q0 80 1 124z" />
    <glyph glyph-name="D" unicode="D" horiz-adv-x="1418" 
d="M49 1989q103 18 247 18q110 0 244 -11q114 -9 268 -34q135 -23 247 -48q111 -24 216 -59q23 -173 45 -339q27 -212 41 -338q24 -186 32 -321q9 -144 9 -255v-13q0 -195 -30 -343q-106 -49 -284 -88q-184 -40 -458 -72q-88 -10 -276 -29q-143 -14 -277 -30zM550 342h26
q10 0 60 -2q32 -2 57 -3q17 -1 46 -1q186 0 268 43q38 62 82 504q16 162 29 346q9 127 8 208v31q0 52 -174 99q-147 38 -352 55z" />
    <glyph glyph-name="E" unicode="E" horiz-adv-x="1334" 
d="M88 2050l1226 8l-26 -266l-914 33v-271h592l45 -315l-465 -4l29 -623l659 -6l35 -561l-1124 -45z" />
    <glyph glyph-name="F" unicode="F" horiz-adv-x="1334" 
d="M88 1989l1226 8l-26 -553l-627 33v-271l418 -6l-19 -276l-583 8v-907l-377 -25z" />
    <glyph glyph-name="G" unicode="G" horiz-adv-x="1480" 
d="M65 342q0 203 37 743q37 543 37 709q0 127 -17 150q204 86 844 86q144 0 232 -7q47 -5 47 -184q0 -55 -6 -178q-5 -97 -7 -172q0 -71 11 -107l-244 9q-18 12 -18 45q0 10 3 28q1 4 3 18t4 23q2 10 4.5 25t2.5 18q3 16 3 27q0 36 -25 43q-192 59 -235 59q-52 0 -103 -20
q-28 -12 -28 -393v-27q0 -51 2 -255q2 -153 6 -357q4 -223 4 -319v-25q98 -45 299 -45q81 0 109 14q-2 23 -1 41q2 40 5 59q6 84 6 111q0 77 -27 102q-12 12 -24 12q-4 0 -9 -1q-8 -2 -18 -3q-14 -2 -22 -3q-9 -1 -23 -1h-21q-8 0 -22 2q-23 97 -23 199q0 94 15 172
q16 4 156 15t405 30l33 -960q-93 -10 -220 -16q-111 -7 -255 -7q-653 0 -891 129q-29 17 -29 211z" />
    <glyph glyph-name="H" unicode="H" horiz-adv-x="1429" 
d="M20 25l31 2003l473 -33v-1012l520 -6l-6 999l289 19l82 -1979l-355 -4l-18 580l-322 -2l8 -598z" />
    <glyph glyph-name="I" unicode="I" horiz-adv-x="656" 
d="M65 1878l123 170l446 -78l-53 -446l-455 8zM86 -82l63 1466l371 -38l116 -1436z" />
    <glyph glyph-name="J" unicode="J" horiz-adv-x="1482" 
d="M34 850l678 47q1 -5 1 -25q0 -50 -7 -151q-2 -35 -4.5 -92t-2.5 -60q-3 -64 -3 -106q0 -156 26 -176q91 -22 254 -49l138 1464q-622 -134 -743 -134q-12 0 -17 1l4 446q4 1 58 1q166 0 993 -17l53 -1972q-219 -24 -394 -35q-186 -12 -352 -12q-448 0 -567 75
q-16 47 -37 145q-22 102 -41 226q-24 152 -31 246q-6 86 -6 148v30z" />
    <glyph glyph-name="K" unicode="K" horiz-adv-x="1648" 
d="M79 1765l559 13l-6 -572l273 -16l252 762l471 -68l-695 -1100l598 -778l-583 6l-236 684l-338 -20l15 -602l-295 -74z" />
    <glyph glyph-name="L" unicode="L" horiz-adv-x="1195" 
d="M79 2023l435 -88l-111 -1497l752 170l20 -590l-1044 -18z" />
    <glyph glyph-name="M" unicode="M" horiz-adv-x="1713" 
d="M18 1991l602 12l260 -1100h51l250 1196l451 -20l61 -2079l-491 -6l88 907l-84 70l-266 -971h-121l-303 1495l-80 -20l76 -1442l-492 -6l66 1458l-66 16z" />
    <glyph glyph-name="N" unicode="N" horiz-adv-x="1578" 
d="M16 2011l520 12l502 -1101l-19 1093l539 -12l-119 -2003l-438 -45l-590 1536l-4 -1540l-328 -8l43 1560h-100z" />
    <glyph glyph-name="O" unicode="O" horiz-adv-x="1560" 
d="M135 748q0 174 6 334q6 149 20 309q31 313 72 354q42 42 252 74q97 16 209 22q107 6 221 6q313 0 436 -55q65 -28 127 -379q60 -353 62 -723q0 -490 -123 -657q-23 -29 -242 -56q-227 -30 -449 -30h-14q-406 0 -495 98q-82 88 -82 703zM466 399q0 -123 13 -139
q43 -55 315 -55q188 0 215 39q23 32 23 331q0 135 -4 238q-5 127 -13 225q-18 247 -45 275q-60 67 -250 67h-6q-119 0 -149 -37q-31 -34 -66 -385q-17 -169 -24 -307q-9 -139 -9 -252z" />
    <glyph glyph-name="P" unicode="P" horiz-adv-x="1316" 
d="M55 0l2 1995q97 10 236 15q152 5 315 5q298 0 385 -26q62 -18 162 -109q106 -94 112 -158q16 -189 22 -296q7 -129 7 -261q0 -311 -45 -485q-32 -123 -74 -160q-38 -32 -266 -57q-94 -12 -172 -19q-22 -2 -75 -5q-12 0 -17 1q3 -3 3 -79t-5 -334zM350 668q20 -3 65 -7
q28 -4 62 -4q140 0 211 56q34 28 34 233v12q0 180 -24 484l-25 295q-6 71 -130 71h-3q-36 0 -170 -12z" />
    <glyph glyph-name="Q" unicode="Q" horiz-adv-x="1570" 
d="M106 475q0 424 37 862q40 482 88 531q42 42 225 74q90 14 182 21q87 7 193 7q272 0 395 -55q49 -19 84 -350q15 -169 22 -312q7 -155 7 -352q-12 -190 -35 -566q0 -21 125 -173q127 -155 121 -172q-11 -20 -49 -20q-29 0 -68 10q-12 4 -36.5 12.5t-47 16.5t-44.5 16
q-107 35 -165 53q-28 -28 -225 -60q-117 -19 -211 -26q-107 -8 -197 -8q-277 0 -366 79q-35 32 -35 412zM632 547q0 -225 17 -248q50 -74 280 -74q118 0 156 25q33 20 33 313q0 129 -6 268q-11 197 -17 285q-19 292 -45 324q-32 39 -178 39q-136 0 -164 -25
q-31 -27 -55 -344q-10 -141 -15 -281q-6 -141 -6 -282z" />
    <glyph glyph-name="R" unicode="R" horiz-adv-x="1431" 
d="M53 -41l39 1432l-37 565q103 10 219 15q128 5 244 5q258 0 329 -20l185 -49q129 -45 184 -181q68 -163 68 -489q0 -135 -21 -156q-18 -309 -166 -399l314 -817q-78 2 -117 2q-240 0 -479 -27l-144 707h-301l2 -582zM589 866h13q85 0 366 19q33 33 33 315q0 86 -3 170
q-4 115 -7 170q-14 173 -25 199q-11 23 -137 26q-15 1 -45 1q-22 0 -68 -2q-57 -3 -121 -9z" />
    <glyph glyph-name="S" unicode="S" horiz-adv-x="1414" 
d="M20 1569q0 307 207 424q136 53 375 53q373 0 733 -104l-23 -588q-444 231 -704 231q-250 0 -250 -239q0 -80 219 -179q54 -24 221 -95q115 -49 217 -97q129 -59 207 -126q79 -68 107 -132q66 -148 65 -279q0 -194 -127 -309q-134 -123 -317 -129l-920 -37l19 604
q326 -98 583 -98q342 0 342 161q0 82 -192 167q-52 23 -196 83q-113 46 -197 85q-113 51 -190 115q-72 60 -101 126q-78 174 -78 363z" />
    <glyph glyph-name="T" unicode="T" horiz-adv-x="1375" 
d="M59 2085l1290 -55l6 -431l-618 33l76 -1437l-459 -66l76 1348l-357 -27z" />
    <glyph glyph-name="U" unicode="U" horiz-adv-x="1513" 
d="M38 1845l445 -88l-17 -1202v-7q0 -114 60 -155q22 -25 74 -31q18 -2 120 -6h14q116 0 165 31q49 34 49 131l-23 1473l568 26l-29 -1671q-1 -142 -76 -192l-190 -93q-162 -47 -363 -47q-101 0 -185 10q-93 9 -175 31q-120 33 -193 60q-73 26 -98 45q-100 70 -107 266z" />
    <glyph glyph-name="V" unicode="V" horiz-adv-x="1513" 
d="M43 1987l499 32q24 -180 56 -401q23 -169 53 -348q129 -776 233 -916q27 76 114 519q83 424 232 1253l263 -109q-60 -315 -96 -496q-58 -290 -87 -431q-90 -446 -163 -765q-66 -280 -101 -368q-100 6 -154 10q-51 4 -155 10q-195 13 -240 17q-79 6 -78 6
q-63 224 -156 720q-87 466 -220 1267z" />
    <glyph glyph-name="W" unicode="W" horiz-adv-x="1998" 
d="M34 2007l269 23l77 -1536q86 -17 111 -19q49 0 111 27q8 51 11 104q3 56 3 121q0 73 -8 217q-6 104 -25 326q-20 219 -25 311q-7 103 -6 170v29h736v-91q0 -606 49 -1097q77 -31 115 -31q29 0 55 17l8 1427l463 27l-283 -2032q-60 -2 -89 -2q-180 0 -331 33
q-84 121 -127 356q-3 14 -46 239q-16 80 -23 101q-48 11 -139 25q-64 -177 -95 -443q-19 -191 -88 -278q-77 -6 -159 -6q-198 0 -281 43q-43 117 -79 278q-39 173 -68 395q-18 141 -39 333q-18 167 -43 439q-12 130 -32 336q-14 127 -22 158z" />
    <glyph glyph-name="X" unicode="X" horiz-adv-x="1470" 
d="M20 33l618 1003l-497 832l319 30l361 -686l291 650l338 -324l-486 -760l445 -772l-357 27l-143 493l-248 -487z" />
    <glyph glyph-name="Y" unicode="Y" horiz-adv-x="1527" 
d="M165 1249q0 566 37 742l537 20q1 -15 1 -46q0 -217 -83 -587q-49 -227 -71 -351q-25 -134 -25 -200q0 -123 47 -188q31 -43 155 -43q102 0 230 29q119 32 141 59q14 20 14 145q0 149 -13 306q-14 169 -40 350q-57 401 -123 401h-4l518 2q9 -66 16 -161q5 -97 5 -189
q0 -128 -8 -278q-9 -141 -27 -289q-18 -149 -35 -230q-19 -92 -41 -147q-17 -45 -143 -84q-61 -19 -86 -25q-20 -6 -86 -26l12 -486l-530 -6l26 486q-73 11 -100 14q-28 3 -98 14q-97 13 -144 76q-82 112 -82 692z" />
    <glyph glyph-name="Z" unicode="Z" horiz-adv-x="1535" 
d="M20 2048l1300 -39l-118 -825l-709 -686l991 96l31 -586l-1395 33l64 592l825 854l-8 82l-913 73z" />
    <glyph glyph-name="bracketleft" unicode="[" horiz-adv-x="888" 
d="M18 887q72 116 233 436q77 150 141 264q66 115 120 191q164 231 356 346q-85 -112 -159 -259q-75 -149 -138 -339q-78 -246 -103 -330q-51 -164 -102 -330q-1 -19 -3 -59q-1 -21 -1 -59q0 -523 352 -1022q-249 168 -461 573q-78 152 -137 298q-60 148 -98 290z" />
    <glyph glyph-name="backslash" unicode="\" horiz-adv-x="1345" 
d="M1325 72l-471 -158q7 7 7 31q0 190 -367 1069q-357 856 -451 944l455 151q-22 -103 152 -596q85 -238 175 -461q103 -255 191 -448q217 -476 309 -532z" />
    <glyph glyph-name="bracketright" unicode="]" horiz-adv-x="1103" 
d="M233 -303q177 234 307 547q78 184 215 606q2 36 3 55q1 18 1 56q0 291 -112 612q-50 148 -117 280q-66 128 -143 242q250 -169 460 -573q76 -147 138 -298q60 -150 98 -290q-69 -108 -234 -436q-87 -170 -140 -263q-65 -114 -120 -192q-163 -230 -356 -346z" />
    <glyph glyph-name="asciicircum" unicode="^" horiz-adv-x="1782" 
d="M1762 1564l-192 -32q-8 16 -20 52q-14 38 -33 96q-20 59 -32 86q-14 34 -31 61l-34 7q-23 -29 -52 -141q-23 -92 -23 -112q0 -3 1 -4q-17 -13 -70 -13q-54 0 -83 22q-2 4 -2 18q0 37 20 98q19 61 62 158q36 84 64 140q23 46 49 86q22 0 107 -12l82 -11q36 -45 114 -285
q71 -214 73 -214z" />
    <glyph glyph-name="underscore" unicode="_" horiz-adv-x="2188" 
d="M-101 -264q103 -8 303 -12q222 -5 494 -5t680 5q366 4 792 12v-133q-491 -7 -892 -12q-442 -5 -711 -5q-581 0 -666 17v133z" />
    <glyph glyph-name="grave" unicode="`" horiz-adv-x="499" 
d="M257 1807q15 -3 205 19q0 -2 -0.5 -5t-0.5 -4v-11q0 -54 18 -166l-201 -21q-5 31 -10 87q-2 18 -6 55.5t-5 45.5z" />
    <glyph glyph-name="a" unicode="a" horiz-adv-x="1459" 
d="M63 1032q1 -3 2 -3q12 0 55 403q38 38 213 67q90 14 182 21q93 6 195 6q363 0 500 -80q36 -19 127 -434q52 -230 78 -416q24 -186 24 -330q0 -246 -84 -301q-42 -26 -405 -76q-9 0 -23 50q-12 51 -22 51q-121 -14 -213 -20q-94 -7 -189 -7q-282 0 -331 70q-20 28 -35 196
q-8 92 -11 160q-4 69 -4 150q0 61 4 93q3 38 7 52q18 57 430 82q433 28 477 65q6 5 6 23q0 46 -31 139q-33 100 -57 133q-13 17 -57 19q-76 0 -297 -68q-2 0 -2 -8t10 -51q10 -44 10 -53q0 -7 -2 -9q-45 -14 -113 -14q-113 0 -288 41q-147 38 -156 49zM665 442
q0 -147 19 -192q20 -57 192 -57q194 0 231 55q43 55 43 246q0 86 -18 106h2q-12 15 -36 23q-21 6 -64 12q-81 14 -172 14q-138 0 -166 -28q-31 -31 -31 -179z" />
    <glyph glyph-name="b" unicode="b" horiz-adv-x="1584" 
d="M174 1985q184 12 321 24q322 27 328 53q-12 -20 -68 -430q-27 -194 -42 -332q-19 -168 -23 -213h8q98 0 338 43q259 46 350 48q104 0 139 -41q39 -45 39 -217q0 -97 -10 -201q-11 -117 -31 -240q-38 -233 -73 -334q-56 -155 -467 -155h-5q-335 0 -772 88q31 121 31 563
q0 164 -5 382q-4 195 -15 407q-18 413 -43 555zM462 489q0 -35 2 -97q1 -34 7 -87q5 -18 51 -18q26 0 78 6q45 5 139 20q121 19 143 22q52 7 84 7q90 0 90 215q0 33 -1 54q-1 29 -3 71t-3 68q-1 18 -1 41q0 24 -22 31q-20 7 -70 18q-91 20 -211 20q-113 0 -190 -20
q-91 -20 -93 -351z" />
    <glyph glyph-name="c" unicode="c" horiz-adv-x="1502" 
d="M61 392q0 122 9 258t30 291q38 291 63 330q139 213 572 213q326 0 545 -82q80 -18 137 -250q18 -74 33 -147q14 -76 30 -146q2 -8 2 -18q0 -76 -184 -76q-104 0 -215 21q-107 18 -113 28q0 -1 1 -1q6 0 36 124q17 71 27 123t12 92q-48 7 -158 78q-97 61 -143 61
q-21 0 -43 -12q-53 -35 -98 -428q-32 -308 -32 -463q0 -42 1 -59q6 -86 41 -86q4 0 78 18q63 15 126 15h21h4q53 0 72 49q9 21 16 96q6 53 31 53q7 0 19 -4l448 37l51 -389q-11 -5 -94 -18q-92 -16 -244 -42q-224 -37 -375 -52q-172 -17 -296 -17q-301 0 -365 94
q-45 66 -45 309z" />
    <glyph glyph-name="d" unicode="d" horiz-adv-x="1404" 
d="M10 819q0 35 3 63q4 34 7 50q33 154 330 276q136 55 251 82q123 30 232 31q-6 49 -37 283.5t-49 373.5h9q80 0 624 70q-12 -70 -12 -272q0 -24 2 -192q2 -126 6 -312q4 -187 6 -328q2 -188 2 -237q0 -613 -70 -668q-44 -37 -497 -37q-245 0 -406 15q-158 13 -235 44
q-30 13 -95 279q-71 295 -71 474v5zM636 440q0 -34 1 -47q2 -26 4 -37q6 -45 137 -114q139 -76 248 -76q32 0 51 6q34 7 78 176q41 162 41 266q0 77 -107 265q-124 218 -248 223h-2q-101 0 -160 -248q-43 -184 -43 -414z" />
    <glyph glyph-name="e" unicode="e" horiz-adv-x="1504" 
d="M108 459q0 120 8 250q7 107 25 237q38 253 92 328q85 121 522 121q188 0 317 -13q130 -13 214 -47q43 -16 80 -97q36 -81 69 -222q49 -218 49 -338q0 -10 -2 -10q4 -13 -68 -35t-220 -53q-331 -68 -631 -68q-86 0 -164 6q-2 -14 -2 -19v-20q0 -77 53 -162
q250 -18 399 -18h44q14 0 36 2q7 0 9 14q0 14 -9 41q-8 34 -8 43q0 13 8 15q105 6 184 12q88 7 132 8l104 8q84 0 111 -12l-164 -512q-13 -1 -38.5 -2.5t-37.5 -1.5t-37.5 -1.5t-38.5 -2.5q-58 -2 -199 -7q-95 -3 -175 -3q-512 0 -596 110q-66 90 -66 449zM299 901
q0 -66 14 -139q16 -82 33 -100q27 -33 168 -33q131 0 254 24q132 28 149 72v-2q13 35 14 59q2 34 2 66q0 86 -24 110q-25 25 -139 43q-67 10 -109 13q-51 4 -119 4q-209 0 -233 -43q-10 -17 -10 -74z" />
    <glyph glyph-name="f" unicode="f" horiz-adv-x="1240" 
d="M247 1892q149 109 973 244q-2 -16 -3 -78v-46q0 -77 1 -126q1 -55 1 -146v-60q-2 -95 -5 -128q-23 9 -201 17q-226 6 -284 12q-6 0 0 53q6 52 0 54q-116 10 -175 10q-42 0 -42 -6q0 -47 -1.5 -168.5t-2.5 -191.5q-5 -316 -7 -425q11 -11 316 -12h303q-11 -210 -11 -214
q-5 -69 -6 -60q-34 2 -49 2t-49 2q-62 5 -104 6q-58 2 -70 2q-68 0 -68 -12q-8 -160 -14 -360q-3 -103 -3 -185q0 -53 1 -76h-459z" />
    <glyph glyph-name="g" unicode="g" horiz-adv-x="1553" 
d="M88 516q0 218 165 688q33 94 203 94q42 0 109 -7q77 -8 178 -21q151 -22 248 -22q27 0 39 1q16 0 22 64q6 61 23 61q33 1 94 1q101 0 181 -6q114 -9 183 -36q0 -84 -13 -181q-16 -118 -38 -226q-43 -214 -60 -214q-2 0 -3 3q0 -2 -2 -2q-8 0 -146 49q-83 30 -144 47
q-75 20 -120 29q-9 3 -9 42q0 21 3 56q4 36 4 63q0 33 -8 33q-54 2 -75 2q-139 0 -191 -37q-74 -77 -74 -374q0 -181 41 -293q44 -24 84 -41q110 -41 248 -51q4 0 4 12q0 31 -31 182q-33 151 -33 184q0 12 4 13q36 -1 105 -8q75 -9 139 -19q165 -28 219 -49q-4 -4 -4 -31
q0 -23 12 -284q7 -130 12 -237q3 -106 3 -194q0 -430 -76 -505q-27 -44 -573 -129q-492 -79 -598 -80q-6 0 -41 182q-16 92 -28 193q-11 93 -11 159q0 143 39 195h1q18 0 246 -51q265 -60 355 -62q10 0 24 8q17 9 27 11q0 -6 -68 -150q-71 -141 -78 -141l43 -6q27 -4 53 -6
q25 -3 48 -3q133 0 151 56q60 171 62 483q0 100 -8 100q-172 0 -272 4q-126 3 -183 7q-291 18 -348 82q-137 151 -137 362z" />
    <glyph glyph-name="h" unicode="h" horiz-adv-x="1539" 
d="M174 1985q184 12 321 24q322 27 328 53q-14 -27 -53 -319q-23 -170 -32 -254q-6 -50 -20 -180q217 49 447 49q222 -1 254 -60q48 -99 76 -442q24 -280 24 -591v-25q0 -340 -24 -383q-18 -31 -160 -31q-194 0 -228 31q56 122 58 665q0 160 -10 176q-31 49 -359 50
q-67 0 -100 -1q-17 -1 -49.5 -2t-48.5 -2q-7 -38 -20 -135q-10 -76 -21 -184q-18 -212 -20 -376q0 -10 1 -15q-238 -11 -276 -33q-16 45 -27 282q-11 216 -22 668q-11 496 -19 713q-11 264 -20 322z" />
    <glyph glyph-name="i" unicode="i" horiz-adv-x="863" 
d="M202 1446q92 567 92 647v8q24 -6 131 -33q96 -25 314 -86q-4 -17 -4 -43q0 -131 69 -421zM235 1188q3 -1 12 -1q75 0 596 56q-24 -144 -46 -441q-24 -332 -50 -802h-459z" />
    <glyph glyph-name="j" unicode="j" horiz-adv-x="874" 
d="M-140 -211q48 -4 260 -63q208 -58 283 -60q39 0 57.5 12t16.5 35q-5 133 -35 350q-31 224 -90 562l-117 645q137 -60 274 -62q197 0 334 117q-42 -256 -98 -1923l-670 -283q-74 216 -215 670zM284 1538q105 410 105 483v7q3 -1 10 -1q66 0 401 58q-2 -14 -3 -22
q-1 -9 -1 -29q0 -144 58 -453z" />
    <glyph glyph-name="k" unicode="k" horiz-adv-x="1592" 
d="M174 2210q184 12 321 24q322 27 328 54q-13 -24 -74 -582q-31 -279 -44 -420q-3 -31 -28 -278q6 6 36 6q10 0 44 -2q68 -6 62 -8q45 103 135 307q58 133 133 307q118 -32 217 -80q229 -111 268 -252q5 -16 -54 -67.5t-185 -141.5q-84 -60 -138.5 -100.5t-81 -63
t-24.5 -26.5q455 -505 455 -826q-139 13 -224 25q-227 27 -247 47q-110 616 -158 658q-34 28 -180 28h-10q-159 0 -181 -43q-2 -6 -2 -20q0 -100 160 -662q-118 -4 -228 -12q-111 -8 -212 -21q-17 45 -27 301q-11 236 -22 732q-11 538 -19 773q-11 285 -20 343z" />
    <glyph glyph-name="l" unicode="l" horiz-adv-x="871" 
d="M219 1978q83 -47 196 -47q196 0 436 117q-104 -249 -104 -2048h-459z" />
    <glyph glyph-name="m" unicode="m" horiz-adv-x="2317" 
d="M137 1442q39 2 146 7q83 4 126 7q284 18 332 37q-10 -16 -10 -51q0 -28 -2 -82q-1 -25 -7 -84q78 96 299 158q180 49 324 49q58 0 68 -10q23 -23 59 -123q7 -17 17 -49q3 -12 14 -50q65 77 299 160q213 76 325 76q25 0 33 -6q43 -32 82 -209q26 -107 36 -223
q11 -123 11 -248q0 -40 1 -74q1 -50 3 -131q1 -82 3 -144q1 -42 1 -108q0 -279 -32 -311q-47 -47 -142 -47q-55 0 -112 16q-59 17 -74 31q10 67 16 178q6 107 6 250q0 211 -18 272q-6 20 -166 21q-257 0 -268 -35q-9 -41 -16 -108q-7 -62 -19 -199q-8 -94 -16 -215
q-6 -91 -6 -146q0 -36 4 -51q-74 -2 -213 -18q-118 -11 -189 -13q-123 0 -219 47q62 57 94 486q14 184 43 548q0 17 -116 17q-64 0 -113 -4q-57 -5 -111 -12q-121 -18 -129 -41q-8 -27 -15 -121q-2 -28 -17 -256q-8 -156 -12 -277q-5 -137 -5 -221q0 -85 4 -102
q-238 -10 -250 -33q3 38 3 117q0 174 -15 547q-11 275 -26 486q-15 198 -31 292z" />
    <glyph glyph-name="n" unicode="n" horiz-adv-x="1572" 
d="M122 -61q16 80 31 151q6 28 18.5 92t19.5 99q8 41 50 262q111 569 111 790q0 53 -6 86q157 22 395 74q-10 -16 -10 -51q0 -28 -2 -82q-1 -25 -7 -84q22 1 66 1q60 0 138 -5q100 -7 224 -29q240 -40 304 -92q98 -77 98 -424q0 -118 -10 -228t-29 -235q-37 -225 -63 -231
q-89 -20 -269 -21q-241 0 -266 27q3 51 3 150q0 98 -3 247q-5 180 -10 273q-6 107 -17 178l-161 -21q-22 -40 -39 -295q-11 -202 -13 -428q0 -154 7 -172q-118 -5 -258 -12q-117 -6 -302 -20z" />
    <glyph glyph-name="o" unicode="o" horiz-adv-x="1529" 
d="M200 926q0 266 78 325q157 121 573 121q89 0 174 -6q93 -7 169 -16q150 -18 190 -41q125 -74 125 -385q0 -120 -17 -245q-19 -127 -55 -247q-77 -260 -188 -371q-149 -149 -459 -149h-4q-161 0 -293 43q-133 43 -158 106q-44 116 -88 375q-24 147 -35 261
q-12 121 -12 229zM524 909q0 -77 8 -160q7 -69 25 -155q37 -159 84 -176q91 -33 188 -33q172 0 199 135q68 336 67 453q0 151 -79 151h-1q-27 0 -70 3q-13 1 -49 3.5t-59 4.5q-129 12 -180 12q-86 0 -98 -23q-35 -59 -35 -215z" />
    <glyph glyph-name="p" unicode="p" horiz-adv-x="1533" 
d="M75 -573q31 183 31 974q0 287 -3 517q-4 269 -7 407q19 19 213 41q69 7 211 17q106 6 219 6q510 0 665 -119q109 -84 109 -484q0 -88 -6 -165q-5 -71 -17 -150q-24 -142 -57 -154q-124 -47 -403 -47q-366 0 -635 97q10 -117 15 -350q5 -260 5 -590h-340zM741 903
q0 -51 3 -100q3 -42 11 -101q16 -100 31 -122q56 -72 197 -72q122 0 239 41q66 23 66 307q0 206 -29 240q-57 61 -213 61q-181 0 -260 -53q-45 -32 -45 -201z" />
    <glyph glyph-name="q" unicode="q" horiz-adv-x="1592" 
d="M69 743q-1 17 -1 48q0 458 220 585q168 99 615 101q336 0 368 -62q43 -79 77 -153q31 -69 67 -166q66 -184 66 -288q0 -17 -1 -24q-18 -71 -22 -84q-7 -24 -23 -84q-45 -104 -149 -149q71 -76 182 -141q85 -52 104 -54q-42 -35 -88 -71q-16 -13 -45 -37t-30 -25
q-168 -134 -199 -139q-16 12 -31 28q-22 20 -33 31q-34 34 -81 88q-49 57 -82 99q-30 -53 -52 -148q-17 -73 -59 -98q-62 -27 -174 -27q-255 0 -512 97q-35 41 -56 109q-22 67 -36 165q-9 72 -14 163q-6 75 -11 236zM299 737q0 -117 55 -178q56 -63 268 -63q118 0 172 20
q0 17 -76 105q-75 87 -80 118q109 71 246 172q7 -10 25 -35t28 -38q34 -50 52 -76q47 -69 55 -69q2 0 2 1q62 180 64 316q0 188 -119 188q-541 0 -576 -59q-22 -37 -37 -74q-16 -35 -34 -92q-24 -72 -34 -125q-11 -63 -11 -111z" />
    <glyph glyph-name="r" unicode="r" horiz-adv-x="1357" 
d="M170 1393q3 -1 11 -1q67 0 474 56q-3 -40 -4 -58q-1 -38 -6 -104q235 16 408 33q172 17 284 33q-10 -47 -25 -193q-16 -140 -39 -383q-148 26 -277 40q-120 13 -218 13q-144 0 -176 -36q-7 -131 -21.5 -397.5t-21.5 -395.5h-336z" />
    <glyph glyph-name="s" unicode="s" horiz-adv-x="1568" 
d="M290 63q0 124 170 568q294 -133 453 -133q135 0 135 104q0 33 -12 72q8 6 8 14q0 27 -145 100q-189 97 -273 166q-147 122 -147 248q0 34 10 70q22 81 93 131q68 47 177 47h9l604 -6q116 -221 116 -306q0 -14 -4 -26q-2 -2 -18 -2q-32 0 -84 4q-13 1 -117 7q-51 3 -90 3
q-281 0 -281 -92q0 -14 3 -20q5 -24 176 -140q209 -141 313 -254q164 -180 162 -360l-277 -258q-6 -2 -115 -2q-39 0 -325 2q-444 1 -528 23q-12 10 -13 40z" />
    <glyph glyph-name="t" unicode="t" horiz-adv-x="1195" 
d="M137 1466l225 -24l-31 278q3 -1 19 -1q80 0 440 30q-10 -90 -31 -334q1 -1 414 -24q2 -10 2 -33q0 -42 -8 -168q-12 -175 -14 -166q-15 1 -44 1h-22h-22q-30 0 -46 1q-30 2 -76.5 4t-64.5 3q-56 3 -84 3q-42 0 -59 -4q-11 -206 -15 -462q-3 -178 -3 -383q0 -123 1 -187
h-315l-29 901l-221 19z" />
    <glyph glyph-name="u" unicode="u" horiz-adv-x="1556" 
d="M69 750q0 194 19 434q4 45 6 90t6 90l510 84q18 -39 18 -109q0 -102 -65 -397q-68 -292 -68 -393q0 -150 98 -156q112 -6 214 -12q73 -4 120 -4q213 0 242 53q22 43 22 104v5q0 124 -79 325q-25 62 -63 142q-29 61 -83 165q-4 8 -15 32t-17 36q-11 22 -33 68q-3 1 -3 5
q0 20 144 79q169 71 288 71h3q86 0 117 -43q26 -76 55 -262q31 -211 31 -414q0 -568 -242 -645q-264 -88 -582 -88q-368 0 -526 146q-117 110 -117 594z" />
    <glyph glyph-name="v" unicode="v" horiz-adv-x="1533" 
d="M59 1364l489 84q17 -39 51 -137q48 -142 83 -250q41 -131 81 -224q39 -95 80 -161l86 -17q61 79 133 369q57 234 57 292q0 8 -1 11q45 33 178 33t211 -57q6 -18 6 -47q0 -88 -51 -255q-51 -166 -158 -415q-87 -207 -164 -364q-75 -152 -125 -226q-56 0 -272 31l-209 30
q-90 117 -291 744q-46 146 -79 249t-56.5 174.5t-35.5 105t-13 30.5z" />
    <glyph glyph-name="w" unicode="w" horiz-adv-x="2428" 
d="M100 1364q2 2 2 0l448 55q56 -128 91 -616q32 -453 59 -475q21 -15 98 -17q97 0 142 17q75 368 75 668v8q0 269 -59 342q34 7 118 12q35 2 218 8q271 6 338 20q-4 -20 -8 -45q-6 -30 -21 -110q-14 -76 -14 -150q0 -166 75 -493q66 -2 90 -2q119 0 142 14q46 52 119 340
q75 285 75 413q0 32 -6 44q-2 2 -2 4q0 12 70 12h4q148 0 246 -67q8 -19 8 -54q0 -183 -197 -663q-185 -456 -315 -635q-73 -14 -174 -14q-29 0 -93 2q-42 1 -102 8q-58 6 -67 7q-22 3 -21 3q-25 22 -28 125q-1 55 -10 111q-9 46 -21 81q-6 -10 -25 -10q-10 0 -24 2t-15 2
h-10q-18 0 -24 -10q-24 -36 -62 -164q-31 -109 -65 -137q-51 -8 -109 -11q-63 -3 -141 -3q-34 0 -116 2q-61 2 -132 6q-30 2 -50 3q-15 1 -36 1l-29 2q-122 115 -286 741q-40 156 -78 312q-58 240 -76 311h-2z" />
    <glyph glyph-name="x" unicode="x" horiz-adv-x="1795" 
d="M20 33l678 819q-88 127 -320 350q-139 135 -150 145q-54 51 -77 66q33 29 408 96q15 -13 55 -57q8 -8 92 -104q61 -71 97 -108q43 -45 65 -64q15 5 133 159q27 34 64.5 81.5t45.5 57.5q45 57 52 64q246 -192 405 -319q-9 -4 -28.5 -14t-30.5 -15q-11 -6 -36 -18.5
t-38 -19.5q-10 -5 -102 -50q-222 -113 -222 -131q0 -1 1 -2q199 -233 663 -932l-555 -37l-205 535l-385 -535z" />
    <glyph glyph-name="y" unicode="y" horiz-adv-x="1588" 
d="M51 1171q17 13 135 63q97 39 346 130q-1 -3 -1 -11q0 -86 138 -335q135 -249 215 -322q90 133 199 389q96 233 117 254q110 -72 185 -122q122 -82 183 -121q-200 -180 -954 -1424h-500q96 136 175 247q99 138 202 280q-47 67 -110 190q-61 119 -138 291q-71 164 -116 278
q-46 116 -76 213z" />
    <glyph glyph-name="z" unicode="z" horiz-adv-x="1631" 
d="M61 1047q32 27 117 415l561 -90l475 98q81 -304 81 -327q0 -2 -1 -2q1 0 -20.5 -41t-66 -127.5t-108.5 -208.5q-183 -349 -183 -385q0 -3 1 -4q22 -3 64 -7q30 -3 63 -3q304 0 567 192l-295 -557q4 0 -120 -3q-48 -1 -385 -7q-448 -8 -491 -8h-15l-86 593q67 46 140 102
q99 74 120 89q138 103 211 160q75 59 92 80q-95 77 -310 77h-6q-56 0 -124 -6q-82 -7 -148 -16q-107 -15 -127 -15q-5 0 -6 1z" />
    <glyph glyph-name="braceleft" unicode="{" horiz-adv-x="908" 
d="M38 887q72 116 233 436q77 150 141 264q66 115 120 191q164 231 356 346q-85 -112 -159 -259q-75 -149 -138 -339q-78 -246 -103 -330q-51 -164 -102 -330q-1 -19 -3 -59q-1 -21 -1 -59q0 -523 352 -1022q-249 168 -461 573q-78 152 -137 298q-60 148 -98 290z" />
    <glyph glyph-name="bar" unicode="|" horiz-adv-x="1017" 
d="M997 -87l-496 7q10 5 17 27q62 178 8 1130q-54 927 -113 1040l479 -8q-55 -91 -54 -613q1 -248 12 -493q13 -271 32 -486q48 -522 115 -604z" />
    <glyph glyph-name="braceright" unicode="}" horiz-adv-x="908" 
d="M888 963q-72 -116 -233 -436q-77 -150 -141 -264q-66 -115 -120 -191q-164 -231 -356 -346q85 112 159 259q75 149 138 339q78 246 103 330q51 164 102 330q1 19 3 59q1 21 1 59q0 523 -352 1022q249 -168 461 -573q78 -152 137 -298q60 -148 98 -290z" />
    <glyph glyph-name="asciitilde" unicode="~" horiz-adv-x="1129" 
d="M664 1596q-56 74 -138 134q-39 29 -154 95q-2 1 -7 1t-7 1q-10 0 -15 1q-76 2 -160 -44q-34 -17 -74 -47q-35 -29 -64 -59q45 102 154 191q45 35 79 56q37 23 76 40q29 -32 110 -103q50 -44 67 -61q31 -31 48 -52q57 -68 85 -153zM489 1852q59 -76 139 -133
q47 -34 156 -94q2 -1 7 -1.5t7 -0.5q9 0 14 -1q75 -1 160 45q37 20 73 48q31 24 64 59q-45 -104 -152 -192q-43 -34 -79 -57q-31 -20 -75 -40q-21 23 -111 102q-34 29 -67 60q-30 28 -49 52q-58 71 -87 153z" />
    <glyph glyph-name="nbsp" unicode="&#xa0;" 
 />
    <glyph glyph-name="exclamdown" unicode="&#xa1;" horiz-adv-x="629" 
d="M609 -462q-250 -105 -419 -107q-98 2 -86 58q42 227 68 437q26 203 44 450q23 317 26 356q10 128 15 156h1l3.5 0.5t7.5 0.5q16 2 43 3q28 1 58 3q19 1 51 1q124 0 129 -29q-22 -129 -31 -228q-10 -107 -10 -229q0 -147 24 -363q27 -226 76 -509zM589 1461
q-7 -93 -14 -217q-5 -82 0 -111q-38 5 -342 68q0 87 -97 260h453z" />
    <glyph glyph-name="cent" unicode="&#xa2;" horiz-adv-x="1522" 
d="M81 392q0 122 9 258t30 291q38 291 63 330q140 213 572 213q326 0 545 -82q80 -18 137 -250q18 -74 33 -147q14 -76 30 -146q2 -8 2 -18q0 -76 -184 -76q-104 0 -215 21q-107 18 -113 28q0 -1 1 -1q6 0 36 124q17 71 27 123t12 92q-48 7 -158 78q-97 61 -143 61
q-21 0 -43 -12q-53 -35 -98 -428q-32 -308 -32 -463q0 -42 1 -59q6 -86 41 -86q4 0 78 18q63 15 126 15h21h4q53 0 72 49q9 21 16 96q6 53 31 53q7 0 19 -4l448 37l51 -389q-11 -5 -94 -18q-92 -16 -244 -42q-224 -37 -375 -52q-172 -17 -296 -17q-301 0 -365 94
q-45 66 -45 309zM659 1289q10 36 34 518q3 -1 8 -2t7 -2q5 -1 19 -3q86 -11 289 10l-30 -509q-17 -1 -152 -6q-74 -3 -175 -6zM634 -294q4 32 -33 519q10 -2 15 -2q5 -1 19 -1q88 0 272 46l35 -510q-24 -4 -71.5 -12.5t-71.5 -12.5q-22 -3 -77.5 -12.5t-87.5 -14.5z" />
    <glyph glyph-name="sterling" unicode="&#xa3;" horiz-adv-x="1584" 
d="M1510 1231q-4 -5 -183 63q-111 42 -209 75t-172 54q-238 70 -379 70q-96 0 -143 -35q63 -35 169 -94q106 -60 169 -94q346 -196 414 -277q6 -6 -16 -14q-20 -6 -62 -14q-72 -11 -123 -21q-53 -11 -80 -18q-140 -42 -205 -95q-43 -31 -55 -112q-4 -15 -4 -53v-91
q0 -178 324 -178q227 0 522 76l-271 -491q-16 -5 -102 -17q-57 -7 -121 -12q-55 -4 -121 -4q-146 0 -265 24q-114 22 -212 70q-251 126 -280 408q-23 225 215 421q72 63 181 127q102 60 257 136q-19 39 -287 88q-251 47 -256 43q-3 -2 -8 17q-5 22 -14 73q-19 101 -19 192
q0 161 68 187q149 55 424 55q166 0 335 -15q175 -17 345 -49q134 -468 164 -495zM23 1127q77 -5 1422 34q-4 -10 -6 -16q-2 -5 -2 -20q0 -94 127 -294l-1399 -36q-18 37 -67 154q-38 86 -75 178z" />
    <glyph glyph-name="currency" unicode="&#xa4;" 
 />
    <glyph glyph-name="yen" unicode="&#xa5;" horiz-adv-x="1849" 
d="M185 1249q0 566 37 742l537 20q1 -15 1 -46q0 -217 -83 -587q-49 -227 -71 -351q-25 -134 -25 -200q0 -123 47 -188q31 -43 155 -43q102 0 230 29q119 32 141 59q14 20 14 145q0 149 -13 306q-14 169 -40 350q-57 401 -123 401h-4l518 2q9 -66 16 -161q5 -97 5 -189
q0 -128 -8 -278q-9 -141 -27 -289q-18 -149 -35 -230q-19 -92 -41 -147q-17 -45 -143 -84q-61 -19 -86 -25q-20 -6 -86 -26l12 -486l-530 -6l26 486q-73 11 -100 14q-28 3 -98 14q-97 13 -144 76q-82 112 -82 692zM283 437q89 -4 1122 24q-1 -6 -5 -11q-1 -4 -1 -14
q0 -64 100 -200l-1104 -25q-9 16 -54 105q-46 94 -58 121zM-94 1020q135 -4 1722 30q-1 -2 -3.5 -6.5t-4.5 -7.5q-2 -5 -2 -17q0 -78 154 -247l-1694 -31q-1 1 -82 130q-73 120 -90 149zM-36 463q104 -5 1721 30q-1 -2 -8 -14q-2 -5 -2 -17q0 -80 154 -247l-1694 -31
q-15 22 -82 130q-58 93 -89 149z" />
    <glyph glyph-name="brokenbar" unicode="&#xa6;" 
 />
    <glyph glyph-name="section" unicode="&#xa7;" horiz-adv-x="1434" 
d="M40 1569q0 307 207 424q136 53 375 53q373 0 733 -104l-23 -588q-444 231 -704 231q-250 0 -250 -239q0 -80 219 -179q54 -24 221 -95q115 -49 217 -97q129 -59 207 -126q79 -68 107 -132q66 -148 65 -279q0 -194 -127 -309q-134 -123 -317 -129l-920 -37l19 604
q326 -98 583 -98q342 0 342 161q0 82 -192 167q-52 23 -196 83q-113 46 -197 85q-113 51 -190 115q-72 60 -101 126q-78 174 -78 363zM427 1072q0 121 37 149q73 55 268 55q28 0 82 -2q27 -2 79 -8q69 -7 89 -19q59 -33 59 -176q0 -53 -8 -112q-10 -64 -26 -112
q-36 -120 -88 -170q-70 -68 -215 -68h-2q-77 0 -137 19q-62 21 -74 49q-21 54 -42 171q-9 55 -16 120q-6 55 -6 104zM579 1065q0 -26 4 -74q2 -24 12 -70q16 -73 39 -81q44 -15 88 -15q81 0 93 62q32 154 32 207q0 69 -37 69h-1q-19 0 -33 1l-19 2q-19 1 -31 2q-50 5 -84 5
q-42 0 -46 -10q-17 -28 -17 -98z" />
    <glyph glyph-name="dieresis" unicode="&#xa8;" 
d="M-2066 973l-192 133z" />
    <glyph glyph-name="copyright" unicode="&#xa9;" 
 />
    <glyph glyph-name="guillemotleft" unicode="&#xab;" horiz-adv-x="2029" 
d="M4 700l450 480l271 -357l-265 -190l504 -289l-248 -344zM948 709l473 579l414 -282l-422 -297l596 -539l-531 -170z" />
    <glyph glyph-name="uni00AD" unicode="&#xad;" horiz-adv-x="878" 
d="M131 911q43 -6 671 43q0 -3 -1 -10t-2 -10q-1 -7 -1 -25q0 -115 60 -362l-660 -45q-10 51 -32 190q-23 141 -35 219z" />
    <glyph glyph-name="registered" unicode="&#xae;" 
 />
    <glyph glyph-name="degree" unicode="&#xb0;" horiz-adv-x="746" 
d="M218 1779q0 76 17 136q20 64 52 77q17 6 64 12q9 1 18.5 2t21 2t17.5 2q18 1 55 1q112 0 167 -29q42 -21 72 -114q13 -38 19 -74q7 -30 5 -62q-3 -95 -91 -146q-72 -44 -185 -44q-109 0 -176 40q-27 17 -42 73q-14 56 -14 124zM373 1910q0 -52 18 -145q17 -80 30 -128
q11 -35 42 -50q20 -8 39 -7q60 2 60 145q0 67 -14 148q-14 73 -27 88q-12 14 -62 14q-34 0 -68 -8q-18 -6 -18 -57z" />
    <glyph glyph-name="guillemotright" unicode="&#xbb;" horiz-adv-x="2178" 
d="M153 170l596 539l-422 297l414 282l473 -579l-530 -709zM1198 344l503 289l-264 190l271 357l450 -480l-713 -700z" />
    <glyph glyph-name="onequarter" unicode="&#xbc;" horiz-adv-x="1768" 
d="M63 72q92 56 309 532q88 193 191 448q90 223 175 461q174 493 152 596l455 -151q-94 -88 -451 -944q-367 -879 -367 -1069q0 -24 7 -31zM72 1138q9 48 29 142t29 142q38 199 38 310q0 94 -28 123q0 6 -26 17q-25 10 -25 16q-2 21 -3.5 53t-2.5 44q-1 16 -5 49
q35 -4 444 35q-14 -66 -30 -300q-20 -278 -33 -631h-387zM1010 639q0 197 2 201l311 53q2 -6 4 -24q0 -46 -68 -244q-69 -197 -69 -262q0 -8 1 -12q0 -1 0.5 -4.5t0.5 -5.5q9 -9 42 -9q32 0 82 10q45 14 57 27t30 235q6 71 11.5 120.5t9.5 73t7 22.5q-2 3 19 3q49 0 115 -9
q80 -9 100 -25q2 -4 2 -14q0 -43 -34 -220q-37 -197 -38 -216q9 0 19 1q5 0 18.5 2t22.5 3q27 3 44 6q7 0 16.5 0.5t12.5 0.5q8 0 20 -2v-66q-1 -23 -17 -29q-37 -11 -79 -19q-33 -8 -75 -13q-1 1 -1.5 -0.5t-4.5 -10.5q-7 -23 -7 -69q0 -44 6 -107q-47 -2 -148 -4
q-42 -1 -175 -5q-4 0 -4 8q0 14 22 99q4 15 9.5 37t7.5 29q6 24 6 34q0 9 -4 9q-91 -17 -145 -17q-73 0 -88 30q-41 76 -41 383z" />
    <glyph glyph-name="onehalf" unicode="&#xbd;" horiz-adv-x="1695" 
d="M63 72q92 56 309 532q88 193 191 448q90 223 175 461q174 493 152 596l455 -151q-94 -88 -451 -944q-367 -879 -367 -1069q0 -24 7 -31zM72 1138q9 48 29 142t29 142q38 199 38 310q0 94 -28 123q0 6 -26 17q-25 10 -25 16q-2 21 -3.5 53t-2.5 44q-1 16 -5 49
q35 -4 444 35q-14 -66 -30 -300q-20 -278 -33 -631h-387zM908 735q14 13 69 222q1 0 109 32q75 22 142 22q92 0 203 -39q25 -9 53 -72q21 -43 39 -110q4 -18 6 -28t6 -28l-7 -6q-6 -6 -23 -22t-35.5 -33t-53.5 -49.5t-66 -61.5q-62 -57 -103.5 -96.5t-60.5 -60t-17 -22.5
q36 -48 148 -48q143 0 358 71l-71 -245q-9 -1 -35 -5t-43 -6q-42 -8 -99 -15q-14 -3 -136 -21q-184 -28 -249.5 -38t-65.5 -9l-6 270l373 406q-25 39 -123 39q-43 0 -89 -7q-53 -6 -114 -19q-107 -21 -109 -21z" />
    <glyph glyph-name="threequarters" unicode="&#xbe;" horiz-adv-x="1768" 
d="M63 72q92 56 309 532q88 193 191 448q90 223 175 461q174 493 152 596l455 -151q-94 -88 -451 -944q-367 -879 -367 -1069q0 -24 7 -31zM1010 639q0 197 2 201l311 53q2 -6 4 -24q0 -46 -68 -244q-69 -197 -69 -262q0 -8 1 -12q0 -1 0.5 -4.5t0.5 -5.5q9 -9 42 -9
q32 0 82 10q45 14 57 27t30 235q6 71 11.5 120.5t9.5 73t7 22.5q-2 3 19 3q49 0 115 -9q80 -9 100 -25q2 -4 2 -14q0 -43 -34 -220q-37 -197 -38 -216q9 0 19 1q5 0 18.5 2t22.5 3q27 3 44 6q7 0 16.5 0.5t12.5 0.5q8 0 20 -2v-66q-1 -23 -17 -29q-37 -11 -79 -19
q-33 -8 -75 -13q-1 1 -1.5 -0.5t-4.5 -10.5q-7 -23 -7 -69q0 -44 6 -107q-47 -2 -148 -4q-42 -1 -175 -5q-4 0 -4 8q0 14 22 99q4 15 9.5 37t7.5 29q6 24 6 34q0 9 -4 9q-91 -17 -145 -17q-73 0 -88 30q-41 76 -41 383zM-51 1766q12 11 71 205q80 14 149 20q74 6 145 6
q119 0 184 -22q29 -11 29 -78q0 -40 -8 -79q-2 -10 -3.5 -17t-2.5 -11.5t-2 -6.5t-2 -2q-2 2 -110 -18q-116 -21 -125 -36q62 -29 112 -57q47 -26 78 -52q102 -80 93 -174q-12 -117 -121 -169q-44 -21 -92 -29q-57 -10 -115 -10q-16 0 -52 2q-22 1 -52 5q-32 4 -45 7
l-117 203q131 -32 226 -32q140 0 140 74v38q0 17 -1 22q-6 32 -24 46q-30 22 -89 39q-20 5 -35 8q-6 1 -53 8q-39 7 -34 12q29 33 180 114q12 7 36.5 20t36.5 19q48 26 73 39q-21 15 -62 15q-59 0 -164 -29q-65 -20 -75 -23q-26 -8 -90 -31q-78 -27 -79 -26z" />
    <glyph glyph-name="questiondown" unicode="&#xbf;" horiz-adv-x="1668" 
d="M1121 1544q-35 6 -439 -35q0 4 1 10t2 10q1 7 1 21q0 93 -55 203l426 37q13 -46 30 -108q21 -76 34 -138zM1648 177q-168 -137 -285 -182q-7 -5 -54 -15q-21 -5 -132 -32q-74 -16 -166 -16q-184 0 -659 98q-73 85 -128 154q-42 53 -71 96q-113 161 -113 233q0 15 6 31
q46 123 199 180q70 26 143 48q91 28 142 48q89 33 145 80q59 49 94 111q24 41 45 88q29 64 46 109q50 130 65 155q86 -62 143 -186q50 -110 52 -203q0 -28 -7 -41q-22 -70 -174 -115q-79 -25 -143 -41q-78 -20 -141 -40q-157 -47 -201 -117q0 -142 98 -279
q117 -160 291 -166q163 -6 326 160q134 136 166 258q105 -29 196 -174q48 -79 117 -242z" />
    <glyph glyph-name="Agrave" unicode="&#xc0;" horiz-adv-x="1571" 
d="M40 27l389 1458l-254 -12l15 507l1056 37l305 -2019l-571 -27l-8 490h-488l-8 -422zM685 827l479 25l-141 766l-233 -14zM-928 277zM520 2090q-46 12 -63 38l80 251q63 3 129 -16q69 -20 84 -55q11 -23 179 -134q162 -111 156 -126q-10 -9 -205 27q-197 32 -198 29
q-57 -42 -162 -14z" />
    <glyph glyph-name="Aacute" unicode="&#xc1;" horiz-adv-x="1571" 
d="M40 27l389 1458l-254 -12l15 507l1056 37l305 -2019l-571 -27l-8 490h-488l-8 -422zM685 827l479 25l-141 766l-233 -14zM945 2393q45 18 73 8l88 -249q-50 -41 -113 -65q-67 -25 -101 -7q-21 12 -223 0q-196 -9 -200 7q3 14 179 102q176 92 176 96q21 68 121 108z" />
    <glyph glyph-name="Acircumflex" unicode="&#xc2;" horiz-adv-x="1571" 
d="M40 27l389 1458l-254 -12l15 507l1056 37l305 -2019l-571 -27l-8 490h-488l-8 -422zM685 827l479 25l-141 766l-233 -14zM568 2110l35 83l17 44q56 145 81 170l58 7q57 7 76 7q14 -15 35 -51q21 -35 46 -83q31 -59 44 -95q14 -36 14 -59q0 -8 -1 -10q-22 -13 -59 -13
t-50 7v3q0 14 -15 66q-21 68 -38 85l-24 -4q-14 -20 -22 -37q-9 -15 -23 -51q-5 -13 -13.5 -33.5t-9.5 -23.5q-4 -9 -9 -20l-5 -12z" />
    <glyph glyph-name="Atilde" unicode="&#xc3;" horiz-adv-x="1571" 
d="M40 27l389 1458l-254 -12l15 507l1056 37l305 -2019l-571 -27l-8 490h-488l-8 -422zM685 827l479 25l-141 766l-233 -14zM685 2443q59 -76 139 -133q47 -34 156 -94q2 -1 7 -1.5t7 -0.5h14q76 -2 160 44q37 20 73 48q33 26 64 60q-44 -105 -152 -193q-43 -34 -79 -57
q-33 -21 -76 -40q-30 34 -110 102q-39 33 -67 61q-25 23 -49 52q-58 70 -87 152zM860 2192q-56 75 -138 134q-45 34 -154 96q-2 0 -7 0.5t-7 0.5q-5 1 -15 1q-73 3 -160 -43q-41 -22 -74 -48q-40 -33 -64 -59q45 103 154 192q45 35 79 56q36 23 76 39q32 -34 110 -102
q37 -32 67 -61q31 -31 48 -52q58 -71 85 -154z" />
    <glyph glyph-name="Adieresis" unicode="&#xc4;" horiz-adv-x="1571" 
d="M40 27l389 1458l-254 -12l15 507l1056 37l305 -2019l-571 -27l-8 490h-488l-8 -422zM685 827l479 25l-141 766l-233 -14zM330 2309q36 -3 346 27q0 -2 -1 -6t-1 -6q-2 -8 -2 -14q0 -61 47 -181l-335 -28q-9 30 -26 95q-4 19 -14 57.5t-14 55.5zM774 2335q34 -3 346 27
l-3 -12q0 -2 -0.5 -6.5t-0.5 -6.5q0 -62 47 -182l-336 -28q-4 13 -8 28.5t-9 35t-8 31.5q-6 21 -28 113z" />
    <glyph glyph-name="Aring" unicode="&#xc5;" horiz-adv-x="1571" 
d="M40 27l389 1458l-254 -12l15 507l1056 37l305 -2019l-571 -27l-8 490h-488l-8 -422zM685 827l479 25l-141 766l-233 -14zM534 2258q0 112 33 138q67 51 243 51q26 0 74 -2q48 -4 72 -7q64 -8 81 -18q53 -30 53 -163q0 -45 -7 -104q-7 -53 -24 -105q-31 -110 -80 -158
q-63 -63 -195 -63h-1q-68 0 -125 18q-56 18 -67 45q-19 49 -37 159q-10 60 -15 111q-5 58 -5 98zM671 2250q0 -22 4 -68q2 -24 10 -65q16 -67 36 -75q36 -14 80 -14q73 0 85 57q28 139 28 193q0 64 -34 64q-17 0 -30 1q-19 2 -46 3q-54 6 -76 6q-35 0 -42 -10
q-15 -28 -15 -92z" />
    <glyph glyph-name="AE" unicode="&#xc6;" horiz-adv-x="2535" 
d="M83 22l389 1458l-254 -12l15 507l1056 37l305 -2019l-571 -27l-8 490h-488l-8 -422zM728 822l479 25l-141 766l-233 -14zM1289 2013l1226 8l-26 -263l-914 32v-268h592l45 -312l-465 -4l29 -616l659 -6l35 -555l-1124 -45z" />
    <glyph glyph-name="Ccedilla" unicode="&#xc7;" horiz-adv-x="1533" 
d="M83 999q1 185 6 312q5 138 10 202q22 259 80 342q122 53 580 105q384 43 577 43h31q46 -178 62 -334l9 -108q2 -22 19 -252l-555 -23q1 22 5 89q3 45 14 104q9 56 16 120q1 9 10 99q-23 6 -69 22q-67 15 -154 17q-80 0 -168 -13q-47 -238 -47 -520q0 -119 7 -235
q8 -139 22 -271q14 -147 21 -228q7 -76 7 -99q159 -62 222 -64q16 0 47 6q35 6 61 6l25 318l592 -14q-5 -24 -13 -99q-8 -80 -14 -182q-6 -89 -20 -169q-16 -80 -40 -140h-36q-117 0 -248 10q-173 13 -365 37q-484 62 -610 143q-31 125 -48 201q-17 72 -22 104
q-10 68 -13 189q-2 94 -2 158q0 80 1 124zM557 -197q123 -45 206 -45q53 0 81 22q16 14 16 53q0 21 -6 32q-17 32 -135 32q-16 0 -26 -1q-21 0 -33 -1q-22 0 -29 -1h-17q-25 0 -23 5q1 17 3 66q2 64 2 129q2 163 -3 165q7 5 51 7q5 0 22 -0.5t29 -0.5q61 -3 78 -4
q22 -1 61 -3.5t55 -3.5q43 -2 63 -3q-3 -56 -12 -128q-9 -65 -12 -65q-16 8 -46 24q-22 12 -47 24q-52 23 -94 34t-70 8q-6 -4 -6 -25q0 -13 6 -57q0 -5 1.5 -16t1.5 -16v-21q126 3 247 -28q128 -34 152 -88q7 -16 7 -41q0 -26 -10 -63q-10 -32 -25 -50q-21 -39 -124 -62
q-38 -9 -82 -15q-32 -5 -98 -11q-86 -6 -92 -4z" />
    <glyph glyph-name="Egrave" unicode="&#xc8;" horiz-adv-x="1354" 
d="M108 2050l1226 8l-26 -266l-914 33v-271h592l45 -315l-465 -4l29 -623l659 -6l35 -561l-1124 -45zM403 2154q-46 12 -63 37l80 252q63 3 129 -16q69 -20 84 -55q11 -24 179 -134q162 -111 156 -126q-10 -9 -205 26q-196 33 -198 30q-57 -42 -162 -14z" />
    <glyph glyph-name="Eacute" unicode="&#xc9;" horiz-adv-x="1354" 
d="M108 2050l1226 8l-26 -266l-914 33v-271h592l45 -315l-465 -4l29 -623l659 -6l35 -561l-1124 -45zM851 2440q45 17 73 8l89 -249q-47 -40 -113 -65q-66 -27 -100 -8q-21 11 -224 -1q-194 -12 -200 5q3 13 179 103q176 93 176 97q19 68 120 110z" />
    <glyph glyph-name="Ecircumflex" unicode="&#xca;" horiz-adv-x="1354" 
d="M108 2050l1226 8l-26 -266l-914 33v-271h592l45 -315l-465 -4l29 -623l659 -6l35 -561l-1124 -45zM568 2110l35 83l17 44q56 145 81 170l58 7q57 7 76 7q14 -15 35 -51q21 -35 46 -83q31 -59 44 -95q14 -36 14 -59q0 -8 -1 -10q-22 -13 -59 -13t-50 7v3q0 14 -15 66
q-21 68 -38 85l-24 -4q-14 -20 -22 -37q-9 -15 -23 -51q-5 -13 -13.5 -33.5t-9.5 -23.5q-4 -9 -9 -20l-5 -12z" />
    <glyph glyph-name="Edieresis" unicode="&#xcb;" horiz-adv-x="1354" 
d="M108 2050l1226 8l-26 -266l-914 33v-271h592l45 -315l-465 -4l29 -623l659 -6l35 -561l-1124 -45zM768 2335q36 -3 346 27q0 -2 -2 -12q-2 -8 -2 -13q0 -63 48 -182l-336 -28q-11 35 -25 95q-18 69 -29 113zM325 2309q34 -3 346 27l-3 -12q0 -2 -0.5 -6.5t-0.5 -7.5
q0 -61 47 -181l-336 -28q-8 31 -25 95q-6 21 -28 113z" />
    <glyph glyph-name="Igrave" unicode="&#xcc;" horiz-adv-x="679" 
d="M106 -82l63 1466l371 -38l116 -1436zM183 1851q100 -40 121 -109q0 -4 176 -96q176 -89 179 -102q-4 -16 -200 -7q-199 13 -223 1q-34 -19 -101 6q-63 24 -113 65l87 250q30 9 74 -8z" />
    <glyph glyph-name="Iacute" unicode="&#xcd;" horiz-adv-x="716" 
d="M106 -82l63 1466l371 -38l116 -1436zM536 1792q44 18 73 8l87 -249q-47 -40 -113 -65q-68 -26 -100 -7q-22 12 -224 0q-196 -9 -200 6q3 14 179 103q177 92 177 96q20 68 121 108z" />
    <glyph glyph-name="Icircumflex" unicode="&#xce;" horiz-adv-x="676" 
d="M106 -82l63 1466l371 -38l116 -1436zM111 1865l29 70q9 24 22 58q58 144 82 170l58 7q72 7 76 7q12 -15 35 -52q25 -43 46 -83q30 -60 44 -95q14 -39 14 -58q0 -5 -2 -11q-20 -13 -59 -13q-38 0 -49 7v3q0 15 -16 67q-19 64 -37 84l-24 -4q-11 -14 -22 -37
q-13 -23 -23 -51q-5 -13 -13.5 -33.5t-9.5 -23.5q-6 -15 -14 -31z" />
    <glyph glyph-name="Idieresis" unicode="&#xcf;" horiz-adv-x="821" 
d="M106 -82l63 1466l371 -38l116 -1436zM412 2069q35 -3 346 27q-2 -8 -2 -12q-2 -8 -2 -13q0 -62 47 -182l-336 -28q-5 17 -14 51.5t-11 43.5q-4 19 -14 57.5t-14 55.5zM-32 2043q36 -3 346 27q0 -4 -2 -12t-2 -14q0 -62 48 -181l-336 -28q-11 35 -25 95q-18 69 -29 113z
" />
    <glyph glyph-name="Eth" unicode="&#xd0;" horiz-adv-x="1438" 
d="M69 1989q103 18 247 18q110 0 244 -11q114 -9 268 -34q135 -23 247 -48q111 -24 216 -59q23 -173 45 -339q27 -212 41 -338q24 -186 32 -321q9 -144 9 -255v-13q0 -195 -30 -343q-106 -49 -284 -88q-184 -40 -458 -72q-88 -10 -276 -29q-143 -14 -277 -30zM570 342h26
q10 0 60 -2q32 -2 57 -3q17 -1 46 -1q186 0 268 43q38 62 82 504q16 162 29 346q9 127 8 208v31q0 52 -174 99q-147 38 -352 55zM-245 1159q103 -8 971 55q-4 -13 -7 -25q-4 -16 -4 -28q0 -130 132 -370l-941 -57q-25 60 -71 193q-14 40 -80 232z" />
    <glyph glyph-name="Ntilde" unicode="&#xd1;" horiz-adv-x="1598" 
d="M36 2011l520 12l502 -1101l-19 1093l539 -12l-119 -2003l-438 -45l-590 1536l-4 -1540l-328 -8l43 1560h-100zM860 2192q-56 75 -138 134q-45 34 -154 96q-2 0 -7 0.5t-7 0.5q-5 1 -15 1q-73 3 -160 -43q-41 -22 -74 -48q-40 -33 -64 -59q45 103 154 192q45 35 79 56
q36 23 76 39q32 -34 110 -102q37 -32 67 -61q31 -31 48 -52q58 -71 85 -154zM685 2443q59 -76 139 -133q47 -34 156 -94q2 -1 7 -1.5t7 -0.5h14q76 -2 160 44q37 20 73 48q33 26 64 60q-44 -105 -152 -193q-43 -34 -79 -57q-33 -21 -76 -40q-30 34 -110 102q-39 33 -67 61
q-25 23 -49 52q-58 70 -87 152z" />
    <glyph glyph-name="Ograve" unicode="&#xd2;" horiz-adv-x="1580" 
d="M155 748q0 174 6 334q6 149 20 309q31 313 72 354q42 42 252 74q97 16 209 22q107 6 221 6q313 0 436 -55q65 -28 127 -379q60 -353 62 -723q0 -490 -123 -657q-23 -29 -242 -56q-226 -30 -449 -30h-14q-406 0 -495 98q-82 88 -82 703zM486 399q0 -123 13 -139
q43 -55 315 -55q188 0 215 39q23 32 23 331q0 135 -4 238q-5 127 -13 225q-18 247 -45 275q-60 67 -250 67h-6q-119 0 -149 -37q-31 -34 -66 -385q-17 -169 -24 -307q-9 -139 -9 -252zM530 1892q-48 8 -67 30l49 259q61 10 131 0t90 -44q14 -21 194 -112q86 -45 129 -71
t41 -34q-10 -11 -207 1q-199 8 -200 5q-52 -49 -160 -34z" />
    <glyph glyph-name="Oacute" unicode="&#xd3;" horiz-adv-x="1580" 
d="M155 748q0 174 6 334q6 149 20 309q31 313 72 354q42 42 252 74q97 16 209 22q107 6 221 6q313 0 436 -55q65 -28 127 -379q60 -353 62 -723q0 -490 -123 -657q-23 -29 -242 -56q-226 -30 -449 -30h-14q-406 0 -495 98q-82 88 -82 703zM486 399q0 -123 13 -139
q43 -55 315 -55q188 0 215 39q23 32 23 331q0 135 -4 238q-5 127 -13 225q-18 247 -45 275q-60 67 -250 67h-6q-119 0 -149 -37q-31 -34 -66 -385q-17 -169 -24 -307q-9 -139 -9 -252zM967 2213q44 17 73 7l87 -249q-50 -41 -113 -65q-67 -25 -100 -6q-23 11 -224 -1
q-196 -9 -200 7q3 13 179 102q174 91 177 96q19 67 121 109z" />
    <glyph glyph-name="Ocircumflex" unicode="&#xd4;" horiz-adv-x="1580" 
d="M155 748q0 174 6 334q6 149 20 309q31 313 72 354q42 42 252 74q97 16 209 22q107 6 221 6q313 0 436 -55q65 -28 127 -379q60 -353 62 -723q0 -490 -123 -657q-23 -29 -242 -56q-226 -30 -449 -30h-14q-406 0 -495 98q-82 88 -82 703zM486 399q0 -123 13 -139
q43 -55 315 -55q188 0 215 39q23 32 23 331q0 135 -4 238q-5 127 -13 225q-18 247 -45 275q-60 67 -250 67h-6q-119 0 -149 -37q-31 -34 -66 -385q-17 -169 -24 -307q-9 -139 -9 -252zM531 1937l42 88q3 8 11 25q10 21 15 33q74 167 107 194l76 8q72 8 100 8q18 -16 46 -58
q31 -44 60 -95q43 -73 58 -109q18 -42 18 -67q0 -9 -1 -12q-30 -15 -77 -15t-66 8v4q0 13 -20 75q-27 78 -50 98l-31 -5q-16 -18 -29 -42q-9 -13 -31 -59q-5 -12 -30 -65q-8 -17 -18 -37z" />
    <glyph glyph-name="Otilde" unicode="&#xd5;" horiz-adv-x="1580" 
d="M155 748q0 174 6 334q6 149 20 309q31 313 72 354q42 42 252 74q97 16 209 22q107 6 221 6q313 0 436 -55q65 -28 127 -379q60 -353 62 -723q0 -490 -123 -657q-23 -29 -242 -56q-226 -30 -449 -30h-14q-406 0 -495 98q-82 88 -82 703zM486 399q0 -123 13 -139
q43 -55 315 -55q188 0 215 39q23 32 23 331q0 135 -4 238q-5 127 -13 225q-18 247 -45 275q-60 67 -250 67h-6q-119 0 -149 -37q-31 -34 -66 -385q-17 -169 -24 -307q-9 -139 -9 -252zM860 2192q-56 75 -138 134q-45 34 -154 96q-2 0 -7 0.5t-7 0.5q-5 1 -15 1
q-73 3 -160 -43q-41 -22 -74 -48q-40 -33 -64 -59q45 103 154 192q45 35 79 56q36 23 76 39q32 -34 110 -102q37 -32 67 -61q31 -31 48 -52q58 -71 85 -154zM685 2443q59 -76 139 -133q47 -34 156 -94q2 -1 7 -1.5t7 -0.5h14q76 -2 160 44q37 20 73 48q33 26 64 60
q-44 -105 -152 -193q-43 -34 -79 -57q-33 -21 -76 -40q-30 34 -110 102q-39 33 -67 61q-25 23 -49 52q-58 70 -87 152z" />
    <glyph glyph-name="Odieresis" unicode="&#xd6;" horiz-adv-x="1580" 
d="M155 748q0 174 6 334q6 149 20 309q31 313 72 354q42 42 252 74q97 16 209 22q107 6 221 6q313 0 436 -55q65 -28 127 -379q60 -353 62 -723q0 -490 -123 -657q-23 -29 -242 -56q-226 -30 -449 -30h-14q-406 0 -495 98q-82 88 -82 703zM486 399q0 -123 13 -139
q43 -55 315 -55q188 0 215 39q23 32 23 331q0 135 -4 238q-5 127 -13 225q-18 247 -45 275q-60 67 -250 67h-6q-119 0 -149 -37q-31 -34 -66 -385q-17 -169 -24 -307q-9 -139 -9 -252zM325 2309q34 -3 346 27l-3 -12q0 -2 -0.5 -6.5t-0.5 -7.5q0 -61 47 -181l-336 -28
q-8 31 -25 95q-6 21 -28 113zM768 2335q36 -3 346 27q0 -2 -2 -12q-2 -8 -2 -13q0 -63 48 -182l-336 -28q-11 35 -25 95q-18 69 -29 113z" />
    <glyph glyph-name="multiply" unicode="&#xd7;" horiz-adv-x="954" 
d="M453 192q-203 19 -317 77q-66 35 -39 66q110 140 187 254q79 112 176 271q20 33 50 82t49.5 80.5t33.5 54.5q59 92 61 94q2 -1 9 -4q26 -11 30 -13q14 -6 40 -18q6 -3 18 -8.5t17 -8.5q41 -21 60.5 -37t16.5 -26q-52 -67 -95 -134q-45 -69 -81 -142q-47 -92 -102 -239
q-53 -148 -114 -349zM934 461q-95 -179 -192 -264q-58 -47 -77 -11q-83 149 -163 271q-84 132 -182 266q-31 43 -81 112t-69 94q-49 70 -63 92l6 7q3 2 11 10l13 13q6 6 16.5 15.5t15.5 14.5q11 11 29 25q72 61 88 48q46 -79 87 -139q49 -69 100 -129q67 -78 182 -186
q134 -122 279 -239z" />
    <glyph glyph-name="Oslash" unicode="&#xd8;" horiz-adv-x="1580" 
d="M155 748q0 174 6 334q6 149 20 309q31 313 72 354q42 42 252 74q97 16 209 22q107 6 221 6q313 0 436 -55q65 -28 127 -379q60 -353 62 -723q0 -490 -123 -657q-23 -29 -242 -56q-226 -30 -449 -30h-14q-406 0 -495 98q-82 88 -82 703zM486 399q0 -123 13 -139
q43 -55 315 -55q188 0 215 39q23 32 23 331q0 135 -4 238q-5 127 -13 225q-18 247 -45 275q-60 67 -250 67h-6q-119 0 -149 -37q-31 -34 -66 -385q-17 -169 -24 -307q-9 -139 -9 -252zM748 -317q-306 36 -475 165q-97 79 -56 155q157 303 294 605q120 257 278 643
q183 452 210 516q75 182 96 223h1q0 -1 4 -3l8 -4q5 -3 19.5 -12.5t24.5 -16.5q22 -15 60 -41q11 -8 29.5 -22t21.5 -16q126 -97 115 -145q-90 -179 -150 -319q-71 -169 -128 -337q-77 -223 -164 -565q-89 -352 -188 -826z" />
    <glyph glyph-name="Ugrave" unicode="&#xd9;" horiz-adv-x="1533" 
d="M58 1845l445 -88l-17 -1202v-7q0 -114 60 -155q22 -25 74 -31q18 -2 120 -6h14q116 0 165 31q49 34 49 131l-23 1473l568 26l-29 -1671q-1 -142 -76 -192l-190 -93q-162 -47 -363 -47q-101 0 -185 10q-93 9 -175 31q-120 33 -193 60q-73 26 -98 45q-100 70 -107 266z
M518 2351q100 -40 121 -109q0 -4 176 -96q176 -89 179 -102q-4 -16 -200 -7q-199 13 -223 1q-34 -19 -101 6q-63 24 -113 65l88 250q28 9 73 -8z" />
    <glyph glyph-name="Uacute" unicode="&#xda;" horiz-adv-x="1533" 
d="M58 1845l445 -88l-17 -1202v-7q0 -114 60 -155q22 -25 74 -31q18 -2 120 -6h14q116 0 165 31q49 34 49 131l-23 1473l568 26l-29 -1671q-1 -142 -76 -192l-190 -93q-162 -47 -363 -47q-101 0 -185 10q-93 9 -175 31q-120 33 -193 60q-73 26 -98 45q-100 70 -107 266z
M897 2356q45 17 73 8l88 -249q-50 -41 -113 -65q-66 -27 -101 -7q-24 12 -223 0q-195 -10 -200 6q2 12 179 103q176 92 176 95q21 69 121 109z" />
    <glyph glyph-name="Ucircumflex" unicode="&#xdb;" horiz-adv-x="1533" 
d="M58 1845l445 -88l-17 -1202v-7q0 -114 60 -155q22 -25 74 -31q18 -2 120 -6h14q116 0 165 31q49 34 49 131l-23 1473l568 26l-29 -1671q-1 -142 -76 -192l-190 -93q-162 -47 -363 -47q-101 0 -185 10q-93 9 -175 31q-120 33 -193 60q-73 26 -98 45q-100 70 -107 266z
M499 2088q1 -1 13.5 30.5t38.5 97.5q55 142 81 170l58 7q57 7 76 7q12 -15 35 -52q17 -27 46 -83q31 -57 44 -95q14 -35 14 -58q0 -8 -1 -11q-24 -13 -59 -13q-37 0 -50 8v2q0 15 -16 67q-20 67 -37 84l-24 -3q-12 -18 -22 -37q-7 -14 -23 -51q-3 -8 -23 -58q-9 -21 -14 -31
z" />
    <glyph glyph-name="Udieresis" unicode="&#xdc;" horiz-adv-x="1533" 
d="M58 1845l445 -88l-17 -1202v-7q0 -114 60 -155q22 -25 74 -31q18 -2 120 -6h14q116 0 165 31q49 34 49 131l-23 1473l568 26l-29 -1671q-1 -142 -76 -192l-190 -93q-162 -47 -363 -47q-101 0 -185 10q-93 9 -175 31q-120 33 -193 60q-73 26 -98 45q-100 70 -107 266z
M325 2309q34 -3 346 27l-3 -12q0 -2 -0.5 -6.5t-0.5 -7.5q0 -61 47 -181l-336 -28q-8 31 -25 95q-6 21 -28 113zM768 2335q36 -3 346 27q0 -2 -2 -12q-2 -8 -2 -13q0 -63 48 -182l-336 -28q-11 35 -25 95q-18 69 -29 113z" />
    <glyph glyph-name="Yacute" unicode="&#xdd;" horiz-adv-x="1547" 
d="M185 1249q0 566 37 742l537 20q1 -15 1 -46q0 -217 -83 -587q-49 -227 -71 -351q-25 -134 -25 -200q0 -123 47 -188q31 -43 155 -43q102 0 230 29q119 32 141 59q14 20 14 145q0 149 -13 306q-14 169 -40 350q-57 401 -123 401h-4l518 2q9 -66 16 -161q5 -97 5 -189
q0 -128 -8 -278q-9 -141 -27 -289q-18 -149 -35 -230q-19 -92 -41 -147q-17 -45 -143 -84q-61 -19 -86 -25q-20 -6 -86 -26l12 -486l-530 -6l26 486q-73 11 -100 14q-28 3 -98 14q-97 13 -144 76q-82 112 -82 692zM799 2043q-47 73 -67 102q-9 14 -28.5 44t-28.5 45l462 154
q63 -122 109 -170q7 -7 11 -10q1 -1 5 -3.5t5 -4.5q-445 -145 -468 -157z" />
    <glyph glyph-name="agrave" unicode="&#xe0;" horiz-adv-x="1479" 
d="M83 1032q1 -3 2 -3q12 0 55 403q38 38 213 67q90 14 182 21q93 6 195 6q363 0 500 -80q36 -19 127 -434q52 -230 78 -416q24 -186 24 -330q0 -246 -84 -301q-42 -26 -405 -76q-9 0 -23 50q-12 51 -22 51q-121 -14 -213 -20q-94 -7 -189 -7q-282 0 -331 70q-20 28 -35 196
q-8 92 -11 160q-4 69 -4 150q0 61 4 93q3 38 7 52q18 57 430 82q433 28 477 65q6 5 6 23q0 46 -31 139q-33 100 -57 133q-13 17 -57 19q-76 0 -297 -68q-2 0 -2 -8t10 -51q10 -44 10 -53q0 -7 -2 -9q-45 -14 -113 -14q-113 0 -288 41q-147 38 -156 49zM685 442
q0 -147 19 -192q20 -57 192 -57q194 0 231 55q43 55 43 246q0 86 -18 106h2q-12 15 -36 23q-21 6 -64 12q-81 14 -172 14q-138 0 -166 -28q-31 -31 -31 -179zM619 1915q100 -40 121 -109q0 -4 176 -96q176 -88 179 -102q-4 -16 -200 -7q-201 12 -223 1q-33 -20 -101 6
q-63 24 -113 65l88 250q28 9 73 -8z" />
    <glyph glyph-name="aacute" unicode="&#xe1;" horiz-adv-x="1479" 
d="M83 1032q1 -3 2 -3q12 0 55 403q38 38 213 67q90 14 182 21q93 6 195 6q363 0 500 -80q36 -19 127 -434q52 -230 78 -416q24 -186 24 -330q0 -246 -84 -301q-42 -26 -405 -76q-9 0 -23 50q-12 51 -22 51q-121 -14 -213 -20q-94 -7 -189 -7q-282 0 -331 70q-20 28 -35 196
q-8 92 -11 160q-4 69 -4 150q0 61 4 93q3 38 7 52q18 57 430 82q433 28 477 65q6 5 6 23q0 46 -31 139q-33 100 -57 133q-13 17 -57 19q-76 0 -297 -68q-2 0 -2 -8t10 -51q10 -44 10 -53q0 -7 -2 -9q-45 -14 -113 -14q-113 0 -288 41q-147 38 -156 49zM685 442
q0 -147 19 -192q20 -57 192 -57q194 0 231 55q43 55 43 246q0 86 -18 106h2q-12 15 -36 23q-21 6 -64 12q-81 14 -172 14q-138 0 -166 -28q-31 -31 -31 -179zM913 1920q45 17 73 8l88 -249q-50 -42 -113 -65q-66 -27 -101 -7q-24 12 -223 0q-195 -10 -200 6q3 14 179 102
q176 93 176 96q21 69 121 109z" />
    <glyph glyph-name="acircumflex" unicode="&#xe2;" horiz-adv-x="1479" 
d="M83 1032q1 -3 2 -3q12 0 55 403q38 38 213 67q90 14 182 21q93 6 195 6q363 0 500 -80q36 -19 127 -434q52 -230 78 -416q24 -186 24 -330q0 -246 -84 -301q-42 -26 -405 -76q-9 0 -23 50q-12 51 -22 51q-121 -14 -213 -20q-94 -7 -189 -7q-282 0 -331 70q-20 28 -35 196
q-8 92 -11 160q-4 69 -4 150q0 61 4 93q3 38 7 52q18 57 430 82q433 28 477 65q6 5 6 23q0 46 -31 139q-33 100 -57 133q-13 17 -57 19q-76 0 -297 -68q-2 0 -2 -8t10 -51q10 -44 10 -53q0 -7 -2 -9q-45 -14 -113 -14q-113 0 -288 41q-147 38 -156 49zM685 442
q0 -147 19 -192q20 -57 192 -57q194 0 231 55q43 55 43 246q0 86 -18 106h2q-12 15 -36 23q-21 6 -64 12q-81 14 -172 14q-138 0 -166 -28q-31 -31 -31 -179zM505 1689q0 -1 10.5 26t40.5 102q55 142 81 170l59 7q56 7 76 7q18 -24 34 -51q18 -29 46 -84q31 -57 44 -95
q15 -37 15 -58q0 -5 -2 -11q-24 -13 -59 -13q-36 0 -50 8l1 2q0 11 -16 67q-21 66 -37 85l-24 -4q-14 -17 -23 -37q-15 -33 -22 -51q-23 -54 -24 -57q-8 -20 -14 -32z" />
    <glyph glyph-name="atilde" unicode="&#xe3;" horiz-adv-x="1479" 
d="M83 1032q1 -3 2 -3q12 0 55 403q38 38 213 67q90 14 182 21q93 6 195 6q363 0 500 -80q36 -19 127 -434q52 -230 78 -416q24 -186 24 -330q0 -246 -84 -301q-42 -26 -405 -76q-9 0 -23 50q-12 51 -22 51q-121 -14 -213 -20q-94 -7 -189 -7q-282 0 -331 70q-20 28 -35 196
q-8 92 -11 160q-4 69 -4 150q0 61 4 93q3 38 7 52q18 57 430 82q433 28 477 65q6 5 6 23q0 46 -31 139q-33 100 -57 133q-13 17 -57 19q-76 0 -297 -68q-2 0 -2 -8t10 -51q10 -44 10 -53q0 -7 -2 -9q-45 -14 -113 -14q-113 0 -288 41q-147 38 -156 49zM685 442
q0 -147 19 -192q20 -57 192 -57q194 0 231 55q43 55 43 246q0 86 -18 106h2q-12 15 -36 23q-21 6 -64 12q-81 14 -172 14q-138 0 -166 -28q-31 -31 -31 -179zM844 1740q-56 75 -138 134q-45 34 -154 96q-2 0 -7 0.5t-7 0.5q-5 1 -15 1q-75 2 -160 -43q-35 -19 -74 -48
q-35 -29 -64 -59q46 105 154 191q42 34 79 57q40 25 76 39q32 -34 110 -102q37 -32 67 -61q26 -26 48 -53q58 -70 85 -153zM669 1991q59 -76 139 -133q47 -34 156 -94q2 -1 7 -1.5t7 -0.5h14q76 -2 160 44q37 20 73 48q31 24 64 59q-45 -104 -152 -192q-43 -34 -79 -57
q-31 -20 -75 -40q-27 30 -111 102q-39 33 -67 61q-28 25 -49 51q-58 69 -87 153z" />
    <glyph glyph-name="adieresis" unicode="&#xe4;" horiz-adv-x="1479" 
d="M83 1032q1 -3 2 -3q12 0 55 403q38 38 213 67q90 14 182 21q93 6 195 6q363 0 500 -80q36 -19 127 -434q52 -230 78 -416q24 -186 24 -330q0 -246 -84 -301q-42 -26 -405 -76q-9 0 -23 50q-12 51 -22 51q-121 -14 -213 -20q-94 -7 -189 -7q-282 0 -331 70q-20 28 -35 196
q-8 92 -11 160q-4 69 -4 150q0 61 4 93q3 38 7 52q18 57 430 82q433 28 477 65q6 5 6 23q0 46 -31 139q-33 100 -57 133q-13 17 -57 19q-76 0 -297 -68q-2 0 -2 -8t10 -51q10 -44 10 -53q0 -7 -2 -9q-45 -14 -113 -14q-113 0 -288 41q-147 38 -156 49zM685 442
q0 -147 19 -192q20 -57 192 -57q194 0 231 55q43 55 43 246q0 86 -18 106h2q-12 15 -36 23q-21 6 -64 12q-81 14 -172 14q-138 0 -166 -28q-31 -31 -31 -179zM731 1926q36 -4 346 27q-1 -2 -1 -6t-1 -6q-2 -8 -2 -14q0 -64 48 -181l-336 -28q-6 20 -26 94q-5 19 -15 60
t-13 54zM287 1900q36 -4 347 27l-3 -12q-1 -5 -1 -14q0 -66 47 -181l-336 -29q-11 35 -25 95q-5 17 -14.5 55t-14.5 59z" />
    <glyph glyph-name="aring" unicode="&#xe5;" horiz-adv-x="1479" 
d="M83 1032q1 -3 2 -3q12 0 55 403q38 38 213 67q90 14 182 21q93 6 195 6q363 0 500 -80q36 -19 127 -434q52 -230 78 -416q24 -186 24 -330q0 -246 -84 -301q-42 -26 -405 -76q-9 0 -23 50q-12 51 -22 51q-121 -14 -213 -20q-94 -7 -189 -7q-282 0 -331 70q-20 28 -35 196
q-8 92 -11 160q-4 69 -4 150q0 61 4 93q3 38 7 52q18 57 430 82q433 28 477 65q6 5 6 23q0 46 -31 139q-33 100 -57 133q-13 17 -57 19q-76 0 -297 -68q-2 0 -2 -8t10 -51q10 -44 10 -53q0 -7 -2 -9q-45 -14 -113 -14q-113 0 -288 41q-147 38 -156 49zM685 442
q0 -147 19 -192q20 -57 192 -57q194 0 231 55q43 55 43 246q0 86 -18 106h2q-12 15 -36 23q-21 6 -64 12q-81 14 -172 14q-138 0 -166 -28q-31 -31 -31 -179zM597 1851q0 -34 3 -67q6 -44 11 -66q16 -67 36 -75q40 -14 80 -14q72 0 84 57q29 143 29 193q0 64 -34 64
q-18 0 -30 1q-16 1 -46 3q-55 6 -77 6q-36 0 -41 -10q-15 -25 -15 -92zM459 1859q0 113 33 138q68 51 244 51q26 0 74 -2q48 -4 72 -7q63 -7 80 -18q53 -29 53 -163q0 -56 -7 -104q-7 -49 -23 -105q-34 -112 -80 -158q-63 -63 -195 -63h-2q-67 0 -124 18q-57 20 -67 45
q-18 47 -38 160q-9 57 -15 110q-5 58 -5 98z" />
    <glyph glyph-name="ae" unicode="&#xe6;" horiz-adv-x="1170" 
d="M-226 1037l2 -3q12 0 55 403q38 38 213 67q90 14 182 21q93 6 195 6q363 0 500 -80q36 -19 127 -434q52 -230 78 -416q24 -186 24 -330q0 -246 -84 -301q-42 -26 -405 -76q-9 0 -23 50q-12 51 -22 51q-121 -14 -213 -20q-94 -7 -189 -7q-282 0 -331 70q-20 28 -35 196
q-8 92 -11 160q-4 69 -4 150q0 61 4 93q3 38 7 52q18 57 430 82q433 28 477 65q6 4 6 23q0 46 -31 139q-33 100 -57 133q-13 17 -57 19q-76 0 -297 -68q-2 0 -2 -8t10 -51q10 -44 10 -53q0 -7 -2 -9q-45 -14 -113 -14q-113 0 -288 41q-147 38 -156 49zM376 447
q0 -147 19 -192q19 -57 192 -57q194 0 231 55q43 55 43 246q0 87 -18 106h2q-12 15 -36 23q-21 6 -64 12q-81 14 -172 14q-138 0 -166 -28q-31 -31 -31 -179z" />
    <glyph glyph-name="ccedilla" unicode="&#xe7;" horiz-adv-x="1522" 
d="M81 392q0 122 9 258t30 291q38 291 63 330q140 213 572 213q326 0 545 -82q80 -18 137 -250q18 -74 33 -147q14 -76 30 -146q2 -8 2 -18q0 -76 -184 -76q-104 0 -215 21q-107 18 -113 28q0 -1 1 -1q6 0 36 124q17 71 27 123t12 92q-48 7 -158 78q-97 61 -143 61
q-21 0 -43 -12q-53 -35 -98 -428q-32 -308 -32 -463q0 -42 1 -59q6 -86 41 -86q4 0 78 18q63 15 126 15h21h4q53 0 72 49q9 21 16 96q6 53 31 53q7 0 19 -4l448 37l51 -389q-11 -5 -94 -18q-92 -16 -244 -42q-224 -37 -375 -52q-172 -17 -296 -17q-301 0 -365 94
q-45 66 -45 309z" />
    <glyph glyph-name="egrave" unicode="&#xe8;" horiz-adv-x="3182" 
d="M3162 -473zM128 459q0 120 8 250q7 107 25 237q38 253 92 328q85 121 522 121q188 0 317 -13q130 -13 214 -47q43 -16 80 -97q36 -81 69 -222q49 -218 49 -338q0 -10 -2 -10q4 -13 -68 -35t-220 -53q-331 -68 -631 -68q-86 0 -164 6q-2 -14 -2 -19v-20q0 -77 53 -162
q250 -18 399 -18h44q14 0 36 2q7 0 9 14q0 14 -9 41q-8 34 -8 43q0 13 8 15q105 6 184 12q88 7 132 8l104 8q84 0 111 -12l-164 -512q-13 -1 -38.5 -2.5t-37.5 -1.5t-37.5 -1.5t-38.5 -2.5q-58 -2 -199 -7q-95 -3 -175 -3q-512 0 -596 110q-66 90 -66 449zM319 901
q0 -66 14 -139q16 -82 33 -100q27 -33 168 -33q131 0 254 24q132 28 149 72v-2q13 35 14 59q2 34 2 66q0 86 -24 110q-25 25 -139 43q-67 10 -109 13q-51 4 -119 4q-209 0 -233 -43q-10 -17 -10 -74zM619 1771q100 -40 121 -109q0 -3 176 -96q176 -88 179 -102
q-5 -16 -200 -6q-199 12 -223 0q-34 -20 -101 7q-63 24 -113 65l88 249q28 9 73 -8z" />
    <glyph glyph-name="eacute" unicode="&#xe9;" horiz-adv-x="1524" 
d="M128 459q0 120 8 250q7 107 25 237q38 253 92 328q85 121 522 121q188 0 317 -13q130 -13 214 -47q43 -16 80 -97q36 -81 69 -222q49 -218 49 -338q0 -10 -2 -10q4 -13 -68 -35t-220 -53q-331 -68 -631 -68q-86 0 -164 6q-2 -14 -2 -19v-20q0 -77 53 -162
q250 -18 399 -18h44q14 0 36 2q7 0 9 14q0 14 -9 41q-8 34 -8 43q0 13 8 15q105 6 184 12q88 7 132 8l104 8q84 0 111 -12l-164 -512q-13 -1 -38.5 -2.5t-37.5 -1.5t-37.5 -1.5t-38.5 -2.5q-58 -2 -199 -7q-95 -3 -175 -3q-512 0 -596 110q-66 90 -66 449zM319 901
q0 -66 14 -139q16 -82 33 -100q27 -33 168 -33q131 0 254 24q132 28 149 72v-2q13 35 14 59q2 34 2 66q0 86 -24 110q-25 25 -139 43q-67 10 -109 13q-51 4 -119 4q-209 0 -233 -43q-10 -17 -10 -74zM929 1766q45 17 73 8l88 -250q-50 -41 -113 -65q-68 -26 -101 -6
q-22 11 -223 -1q-196 -9 -200 7q3 14 179 102q176 92 176 96q21 69 121 109z" />
    <glyph glyph-name="ecircumflex" unicode="&#xea;" horiz-adv-x="1524" 
d="M128 459q0 120 8 250q7 107 25 237q38 253 92 328q85 121 522 121q188 0 317 -13q130 -13 214 -47q43 -16 80 -97q36 -81 69 -222q49 -218 49 -338q0 -10 -2 -10q4 -13 -68 -35t-220 -53q-331 -68 -631 -68q-86 0 -164 6q-2 -14 -2 -19v-20q0 -77 53 -162
q250 -18 399 -18h44q14 0 36 2q7 0 9 14q0 14 -9 41q-8 34 -8 43q0 13 8 15q105 6 184 12q88 7 132 8l104 8q84 0 111 -12l-164 -512q-13 -1 -38.5 -2.5t-37.5 -1.5t-37.5 -1.5t-38.5 -2.5q-58 -2 -199 -7q-95 -3 -175 -3q-512 0 -596 110q-66 90 -66 449zM319 901
q0 -66 14 -139q16 -82 33 -100q27 -33 168 -33q131 0 254 24q132 28 149 72v-2q13 35 14 59q2 34 2 66q0 86 -24 110q-25 25 -139 43q-67 10 -109 13q-51 4 -119 4q-209 0 -233 -43q-10 -17 -10 -74zM510 1546l29 70q9 24 22 58q58 144 82 170l58 6q66 8 76 8q12 -15 35 -52
q25 -43 46 -83q30 -60 44 -95q14 -40 14 -58q0 -5 -2 -11q-20 -13 -59 -13q-38 0 -49 7v3q0 15 -16 67q-19 64 -37 84l-24 -4q-10 -12 -23 -37q-14 -28 -22 -51q-5 -13 -13.5 -33.5t-9.5 -23.5q-9 -21 -15 -31z" />
    <glyph glyph-name="edieresis" unicode="&#xeb;" horiz-adv-x="1524" 
d="M128 459q0 120 8 250q7 107 25 237q38 253 92 328q85 121 522 121q188 0 317 -13q130 -13 214 -47q43 -16 80 -97q36 -81 69 -222q49 -218 49 -338q0 -10 -2 -10q4 -13 -68 -35t-220 -53q-331 -68 -631 -68q-86 0 -164 6q-2 -14 -2 -19v-20q0 -77 53 -162
q250 -18 399 -18h44q14 0 36 2q7 0 9 14q0 14 -9 41q-8 34 -8 43q0 13 8 15q105 6 184 12q88 7 132 8l104 8q84 0 111 -12l-164 -512q-13 -1 -38.5 -2.5t-37.5 -1.5t-37.5 -1.5t-38.5 -2.5q-58 -2 -199 -7q-95 -3 -175 -3q-512 0 -596 110q-66 90 -66 449zM319 901
q0 -66 14 -139q16 -82 33 -100q27 -33 168 -33q131 0 254 24q132 28 149 72v-2q13 35 14 59q2 34 2 66q0 86 -24 110q-25 25 -139 43q-67 10 -109 13q-51 4 -119 4q-209 0 -233 -43q-10 -17 -10 -74zM763 1761q36 -3 346 27q-2 -8 -2 -12q-2 -8 -2 -14q0 -63 47 -181
l-335 -28q-8 24 -26 94q-5 20 -15 60.5t-13 53.5zM319 1735q36 -4 346 27q0 -4 -2 -12q-1 -4 -1 -14q0 -66 47 -181l-336 -28q-11 33 -25 94q-5 17 -14 55t-15 59z" />
    <glyph glyph-name="igrave" unicode="&#xec;" horiz-adv-x="897" 
d="M255 1188q3 -1 12 -1q75 0 596 56q-24 -144 -46 -441q-24 -332 -50 -802h-459zM401 1819q100 -40 121 -109q0 -4 176 -96q176 -89 179 -102q-4 -16 -200 -7q-199 13 -223 1q-35 -20 -101 7q-63 23 -113 65l88 249q28 9 73 -8z" />
    <glyph glyph-name="iacute" unicode="&#xed;" horiz-adv-x="883" 
d="M255 1188q3 -1 12 -1q75 0 596 56q-24 -144 -46 -441q-24 -332 -50 -802h-459zM695 1808q47 18 73 8l88 -249q-50 -41 -113 -65q-69 -26 -101 -7q-21 12 -223 0q-195 -10 -200 6q3 13 179 103q176 92 176 96q21 68 121 108z" />
    <glyph glyph-name="icircumflex" unicode="&#xee;" horiz-adv-x="883" 
d="M255 1188q3 -1 12 -1q75 0 596 56q-24 -144 -46 -441q-24 -332 -50 -802h-459zM345 1519q1 -1 6.5 13t17 43.5t27.5 71.5q57 143 82 170l58 7q57 7 76 7q12 -15 35 -52q25 -43 46 -83q28 -53 44 -95q14 -39 14 -58q0 -8 -2 -11q-23 -13 -59 -13t-49 8v2q0 15 -16 67
q-19 64 -37 84l-24 -4q-9 -10 -22 -36q-9 -17 -23 -52q-5 -13 -13.5 -33.5t-9.5 -23.5q-9 -21 -14 -31z" />
    <glyph glyph-name="idieresis" unicode="&#xef;" horiz-adv-x="960" 
d="M255 1188q3 -1 12 -1q75 0 596 56q-24 -144 -46 -441q-24 -332 -50 -802h-459zM550 1777q36 -3 346 27q0 -4 -2 -12t-2 -14q0 -64 48 -181l-336 -28q-11 33 -25 94q-15 57 -29 114zM107 1751q34 -4 346 27l-3 -12q0 -2 -0.5 -7t-0.5 -7q0 -63 47 -181l-336 -28
q-1 2 -25 94q-9 32 -28 114z" />
    <glyph glyph-name="eth" unicode="&#xf0;" 
 />
    <glyph glyph-name="ograve" unicode="&#xf2;" horiz-adv-x="1549" 
d="M220 926q0 266 78 325q157 121 573 121q89 0 174 -6q93 -7 169 -16q150 -18 190 -41q125 -74 125 -385q0 -120 -17 -245q-19 -127 -55 -247q-77 -260 -188 -371q-149 -149 -459 -149h-4q-161 0 -293 43q-133 43 -158 106q-44 116 -88 375q-24 147 -35 261
q-12 121 -12 229zM544 909q0 -77 8 -160q7 -69 25 -155q37 -159 84 -176q91 -33 188 -33q172 0 199 135q68 336 67 453q0 151 -79 151h-1q-27 0 -70 3q-13 1 -49 3.5t-59 4.5q-129 12 -180 12q-86 0 -98 -23q-35 -59 -35 -215zM220 926q0 266 78 325q157 121 573 121
q89 0 174 -6q93 -7 169 -16q150 -18 190 -41q125 -74 125 -385q0 -120 -17 -245q-19 -127 -55 -247q-77 -260 -188 -371q-149 -149 -459 -149h-4q-161 0 -293 43q-133 43 -158 106q-44 116 -88 375q-24 147 -35 261q-12 121 -12 229zM544 909q0 -77 8 -160q7 -69 25 -155
q37 -159 84 -176q91 -33 188 -33q172 0 199 135q68 336 67 453q0 151 -79 151h-1q-27 0 -70 3q-13 1 -49 3.5t-59 4.5q-129 12 -180 12q-86 0 -98 -23q-35 -59 -35 -215zM677 1808q101 -40 121 -108q0 -4 177 -96q177 -91 179 -103q-5 -17 -200 -6q-202 12 -224 0
q-32 -19 -100 7q-66 25 -113 65l87 249q27 9 73 -8z" />
    <glyph glyph-name="oacute" unicode="&#xf3;" horiz-adv-x="1549" 
d="M220 926q0 266 78 325q157 121 573 121q89 0 174 -6q93 -7 169 -16q150 -18 190 -41q125 -74 125 -385q0 -120 -17 -245q-19 -127 -55 -247q-77 -260 -188 -371q-149 -149 -459 -149h-4q-161 0 -293 43q-133 43 -158 106q-44 116 -88 375q-24 147 -35 261
q-12 121 -12 229zM544 909q0 -77 8 -160q7 -69 25 -155q37 -159 84 -176q91 -33 188 -33q172 0 199 135q68 336 67 453q0 151 -79 151h-1q-27 0 -70 3q-13 1 -49 3.5t-59 4.5q-129 12 -180 12q-86 0 -98 -23q-35 -59 -35 -215zM977 1830q45 17 73 7l88 -249
q-49 -40 -113 -65q-68 -26 -101 -6q-22 11 -224 -1q-195 -9 -199 7q1 13 179 102q176 92 176 96q21 68 121 109z" />
    <glyph glyph-name="ocircumflex" unicode="&#xf4;" horiz-adv-x="1549" 
d="M220 926q0 266 78 325q157 121 573 121q89 0 174 -6q93 -7 169 -16q150 -18 190 -41q125 -74 125 -385q0 -120 -17 -245q-19 -127 -55 -247q-77 -260 -188 -371q-149 -149 -459 -149h-4q-161 0 -293 43q-133 43 -158 106q-44 116 -88 375q-24 147 -35 261
q-12 121 -12 229zM544 909q0 -77 8 -160q7 -69 25 -155q37 -159 84 -176q91 -33 188 -33q172 0 199 135q68 336 67 453q0 151 -79 151h-1q-27 0 -70 3q-13 1 -49 3.5t-59 4.5q-129 12 -180 12q-86 0 -98 -23q-35 -59 -35 -215zM510 1546l29 70q9 24 22 58q58 144 82 170
l58 6q66 8 76 8q12 -15 35 -52q25 -43 46 -83q30 -60 44 -95q14 -40 14 -58q0 -5 -2 -11q-20 -13 -59 -13q-38 0 -49 7v3q0 15 -16 67q-19 64 -37 84l-24 -4q-10 -12 -23 -37q-14 -28 -22 -51q-5 -13 -13.5 -33.5t-9.5 -23.5q-9 -21 -15 -31z" />
    <glyph glyph-name="otilde" unicode="&#xf5;" horiz-adv-x="1549" 
d="M220 926q0 266 78 325q157 121 573 121q89 0 174 -6q93 -7 169 -16q150 -18 190 -41q125 -74 125 -385q0 -120 -17 -245q-19 -127 -55 -247q-77 -260 -188 -371q-149 -149 -459 -149h-4q-161 0 -293 43q-133 43 -158 106q-44 116 -88 375q-24 147 -35 261
q-12 121 -12 229zM544 909q0 -77 8 -160q7 -69 25 -155q37 -159 84 -176q91 -33 188 -33q172 0 199 135q68 336 67 453q0 151 -79 151h-1q-27 0 -70 3q-13 1 -49 3.5t-59 4.5q-129 12 -180 12q-86 0 -98 -23q-35 -59 -35 -215zM962 1564q-59 77 -139 135q-39 29 -154 95
q-3 0 -7.5 1t-6.5 1q-10 0 -15 1q-76 2 -160 -44q-34 -17 -74 -47q-35 -29 -64 -59q45 102 154 191q45 35 79 56q37 23 76 40q29 -32 110 -103q39 -33 67 -61q31 -31 48 -52q56 -68 86 -154zM786 1816q56 -74 139 -133q52 -38 156 -95q2 0 6.5 -0.5t7.5 -0.5q4 -1 14 -1
q74 -1 160 44q39 21 73 49q31 24 64 59q-45 -104 -152 -192q-40 -33 -78 -57q-42 -26 -76 -40q-30 31 -111 101q-24 21 -67 61q-30 28 -49 52q-59 71 -87 153z" />
    <glyph glyph-name="odieresis" unicode="&#xf6;" horiz-adv-x="1549" 
d="M220 926q0 266 78 325q157 121 573 121q89 0 174 -6q93 -7 169 -16q150 -18 190 -41q125 -74 125 -385q0 -120 -17 -245q-19 -127 -55 -247q-77 -260 -188 -371q-149 -149 -459 -149h-4q-161 0 -293 43q-133 43 -158 106q-44 116 -88 375q-24 147 -35 261
q-12 121 -12 229zM544 909q0 -77 8 -160q7 -69 25 -155q37 -159 84 -176q91 -33 188 -33q172 0 199 135q68 336 67 453q0 151 -79 151h-1q-27 0 -70 3q-13 1 -49 3.5t-59 4.5q-129 12 -180 12q-86 0 -98 -23q-35 -59 -35 -215zM763 1761q36 -3 346 27q-2 -8 -2 -12
q-2 -8 -2 -14q0 -63 47 -181l-335 -28q-8 24 -26 94q-5 20 -15 60.5t-13 53.5zM319 1735q36 -4 346 27q0 -4 -2 -12q-1 -4 -1 -14q0 -66 47 -181l-336 -28q-11 33 -25 94q-5 17 -14 55t-15 59z" />
    <glyph glyph-name="divide" unicode="&#xf7;" horiz-adv-x="2227" 
d="M-59 1161q91 -55 615 -25q216 13 485 40q250 26 489 61q517 75 598 144l79 -473q-121 42 -1045 -42q-947 -85 -1117 -174q-21 -11 -24 -21zM761 1816q47 -7 431 47l-3 -21q-2 -14 -2 -24q0 -110 59 -317l-418 -49q-8 37 -32 165q-6 31 -17.5 97.5t-17.5 101.5zM866 493
q42 -7 431 47l-3 -21q-2 -16 -2 -24q0 -110 59 -317l-418 -49q-10 48 -32 165q-6 33 -18 101.5t-17 97.5z" />
    <glyph glyph-name="oslash" unicode="&#xf8;" horiz-adv-x="1549" 
d="M220 926q0 266 78 325q157 121 573 121q89 0 174 -6q93 -7 169 -16q150 -18 190 -41q125 -74 125 -385q0 -120 -17 -245q-19 -127 -55 -247q-77 -260 -188 -371q-149 -149 -459 -149h-4q-161 0 -293 43q-133 43 -158 106q-44 116 -88 375q-24 147 -35 261
q-12 121 -12 229zM544 909q0 -77 8 -160q7 -69 25 -155q37 -159 84 -176q91 -33 188 -33q172 0 199 135q68 336 67 453q0 151 -79 151h-1q-27 0 -70 3q-13 1 -49 3.5t-59 4.5q-129 12 -180 12q-86 0 -98 -23q-35 -59 -35 -215zM175 -199q92 52 307 496q92 188 191 417
q92 216 174 430q173 461 151 555l453 -140q-94 -84 -449 -880q-365 -818 -365 -997q0 -22 7 -29z" />
    <glyph glyph-name="ugrave" unicode="&#xf9;" horiz-adv-x="1576" 
d="M89 750q0 194 19 434q4 45 6 90t6 90l510 84q18 -39 18 -109q0 -102 -65 -397q-68 -292 -68 -393q0 -150 98 -156q112 -6 214 -12q73 -4 120 -4q213 0 242 53q22 43 22 104v5q0 124 -79 325q-25 62 -63 142q-29 61 -83 165q-4 8 -15 32t-17 36q-11 22 -33 68q-3 1 -3 5
q0 20 144 79q169 71 288 71h3q86 0 117 -43q26 -76 55 -262q31 -211 31 -414q0 -568 -242 -645q-264 -88 -582 -88q-368 0 -526 146q-117 110 -117 594zM571 1819q21 -12 467 -157q-2 -2 -10 -8l-2.5 -2.5l-2.5 -2.5t-3 -2.5t-3 -3.5q-46 -46 -109 -169l-461 153
q25 42 57 90q41 63 67 102z" />
    <glyph glyph-name="uacute" unicode="&#xfa;" horiz-adv-x="1576" 
d="M89 750q0 194 19 434q4 45 6 90t6 90l510 84q18 -39 18 -109q0 -102 -65 -397q-68 -292 -68 -393q0 -150 98 -156q112 -6 214 -12q73 -4 120 -4q213 0 242 53q22 43 22 104v5q0 124 -79 325q-25 62 -63 142q-29 61 -83 165q-4 8 -15 32t-17 36q-11 22 -33 68q-3 1 -3 5
q0 20 144 79q169 71 288 71h3q86 0 117 -43q26 -76 55 -262q31 -211 31 -414q0 -568 -242 -645q-264 -88 -582 -88q-368 0 -526 146q-117 110 -117 594zM915 1819q36 -55 66 -102q31 -48 57 -90l-461 -153q-63 123 -109 169q-6 7 -11 11q-8 6 -10 8q445 145 468 157z" />
    <glyph glyph-name="ucircumflex" unicode="&#xfb;" horiz-adv-x="1576" 
d="M89 750q0 194 19 434q4 45 6 90t6 90l510 84q18 -39 18 -109q0 -102 -65 -397q-68 -292 -68 -393q0 -150 98 -156q112 -6 214 -12q73 -4 120 -4q213 0 242 53q22 43 22 104v5q0 124 -79 325q-25 62 -63 142q-29 61 -83 165q-4 8 -15 32t-17 36q-11 22 -33 68q-3 1 -3 5
q0 20 144 79q169 71 288 71h3q86 0 117 -43q26 -76 55 -262q31 -211 31 -414q0 -568 -242 -645q-264 -88 -582 -88q-368 0 -526 146q-117 110 -117 594zM510 1546l29 70q9 24 22 58q58 144 82 170l58 6q66 8 76 8q12 -15 35 -52q25 -43 46 -83q30 -60 44 -95q14 -40 14 -58
q0 -5 -2 -11q-20 -13 -59 -13q-38 0 -49 7v3q0 15 -16 67q-19 64 -37 84l-24 -4q-10 -12 -23 -37q-14 -28 -22 -51q-5 -13 -13.5 -33.5t-9.5 -23.5q-9 -21 -15 -31z" />
    <glyph glyph-name="udieresis" unicode="&#xfc;" horiz-adv-x="1576" 
d="M89 750q0 194 19 434q4 45 6 90t6 90l510 84q18 -39 18 -109q0 -102 -65 -397q-68 -292 -68 -393q0 -150 98 -156q112 -6 214 -12q73 -4 120 -4q213 0 242 53q22 43 22 104v5q0 124 -79 325q-25 62 -63 142q-29 61 -83 165q-4 8 -15 32t-17 36q-11 22 -33 68q-3 1 -3 5
q0 20 144 79q169 71 288 71h3q86 0 117 -43q26 -76 55 -262q31 -211 31 -414q0 -568 -242 -645q-264 -88 -582 -88q-368 0 -526 146q-117 110 -117 594zM763 1761q36 -3 346 27q-2 -8 -2 -12q-2 -8 -2 -14q0 -63 47 -181l-335 -28q-8 24 -26 94q-5 20 -15 60.5t-13 53.5z
M319 1735q36 -4 346 27q0 -4 -2 -12q-1 -4 -1 -14q0 -66 47 -181l-336 -28q-11 33 -25 94q-5 17 -14 55t-15 59z" />
    <glyph glyph-name="yacute" unicode="&#xfd;" horiz-adv-x="1608" 
d="M71 1171q17 13 135 63q97 39 346 130q-1 -3 -1 -11q0 -86 138 -335q135 -249 215 -322q90 133 199 389q96 233 117 254q110 -72 185 -122q122 -82 183 -121q-200 -180 -954 -1424h-500q96 136 175 247q99 138 202 280q-47 67 -110 190q-61 119 -138 291q-71 164 -116 278
q-46 116 -76 213zM571 1474q-17 24 -67 102q-40 60 -57 89l461 154q61 -120 109 -170q2 -2 6 -5.5t5 -4.5q8 -6 10 -8q-446 -145 -467 -157z" />
    <glyph glyph-name="ydieresis" unicode="&#xff;" horiz-adv-x="1608" 
d="M71 1171q17 13 135 63q97 39 346 130q-1 -3 -1 -11q0 -86 138 -335q135 -249 215 -322q90 133 199 389q96 233 117 254q110 -72 185 -122q122 -82 183 -121q-200 -180 -954 -1424h-500q96 136 175 247q99 138 202 280q-47 67 -110 190q-61 119 -138 291q-71 164 -116 278
q-46 116 -76 213zM763 1761q36 -3 346 27q-2 -8 -2 -12q-2 -8 -2 -14q0 -63 47 -181l-335 -28q-8 24 -26 94q-5 20 -15 60.5t-13 53.5zM319 1735q36 -4 346 27q0 -4 -2 -12q-1 -4 -1 -14q0 -66 47 -181l-336 -28q-11 33 -25 94q-5 17 -14 55t-15 59z" />
    <glyph glyph-name="uni2000" unicode="&#x2000;" 
 />
    <glyph glyph-name="uni2001" unicode="&#x2001;" 
 />
    <glyph glyph-name="uni2002" unicode="&#x2002;" 
 />
    <glyph glyph-name="uni2003" unicode="&#x2003;" 
 />
    <glyph glyph-name="uni2004" unicode="&#x2004;" 
 />
    <glyph glyph-name="uni2005" unicode="&#x2005;" 
 />
    <glyph glyph-name="uni2006" unicode="&#x2006;" 
 />
    <glyph glyph-name="uni2007" unicode="&#x2007;" 
 />
    <glyph glyph-name="uni2008" unicode="&#x2008;" 
 />
    <glyph glyph-name="uni2009" unicode="&#x2009;" 
 />
    <glyph glyph-name="uni200A" unicode="&#x200a;" 
 />
    <glyph glyph-name="uni2010" unicode="&#x2010;" horiz-adv-x="878" 
d="M131 911q43 -6 671 43q0 -3 -1 -10t-2 -10q-1 -7 -1 -25q0 -115 60 -362l-660 -45q-10 51 -32 190q-23 141 -35 219z" />
    <glyph glyph-name="uni2011" unicode="&#x2011;" horiz-adv-x="878" 
d="M131 911q43 -6 671 43q0 -3 -1 -10t-2 -10q-1 -7 -1 -25q0 -115 60 -362l-660 -45q-10 51 -32 190q-23 141 -35 219z" />
    <glyph glyph-name="figuredash" unicode="&#x2012;" horiz-adv-x="878" 
d="M131 911q43 -6 671 43q0 -3 -1 -10t-2 -10q-1 -7 -1 -25q0 -115 60 -362l-660 -45q-10 51 -32 190q-23 141 -35 219z" />
    <glyph glyph-name="endash" unicode="&#x2013;" horiz-adv-x="1068" 
d="M131 952q43 -6 862 37l-3 -21q-1 -8 -1 -26q0 -121 59 -401l-850 -39z" />
    <glyph glyph-name="emdash" unicode="&#x2014;" horiz-adv-x="1715" 
d="M131 952q48 -6 1509 58l-3 -21q-1 -8 -1 -26q0 -121 59 -402l-1497 -59z" />
    <glyph glyph-name="quoteleft" unicode="&#x2018;" horiz-adv-x="482" 
d="M45 1524q0 42 34 141q43 120 43 125q0 3 78 20q73 13 160 15q25 0 25 -27q0 -14 -35 -125q-11 -35 -26 -95q-12 -47 -13 -75q-4 -7 -4 -22q-1 -124 155 -387q-51 4 -217 184q-62 68 -93 103l-93 102q-14 8 -14 41z" />
    <glyph glyph-name="quoteright" unicode="&#x2019;" horiz-adv-x="589" 
d="M198 1735q0 90 43 90q80 0 197 -37q108 -34 108 -45q23 -103 23 -166q0 -75 -27 -94q-14 -19 -40 -53.5t-36 -47.5l-75 -102q-136 -183 -181 -184q76 127 76 231q0 68 -30 119q-11 13 -18 25q-9 12 -19 22q-1 15 -13 129q-5 39 -6 67q-2 36 -2 46z" />
    <glyph glyph-name="quotedblleft" unicode="&#x201c;" horiz-adv-x="1029" 
d="M32 1577q0 63 23 166q0 10 86 18q86 11 170 13q35 0 35 -41q0 -25 -15 -95q-11 -61 -13 -73q-6 -45 -7 -62q-4 -7 -4 -22q-1 -124 155 -387q-21 0 -188 53q-32 32 -66 83q-32 46 -73 120q-72 129 -76 133q-27 19 -27 94zM579 1577q0 63 23 166q0 11 108 45q120 37 197 37
q25 0 24 -27q0 -17 -34 -125q-11 -35 -26 -95q-12 -47 -13 -75q-4 -7 -4 -22q-1 -124 155 -387q-25 0 -211 59q-61 65 -127 199q-35 69 -50.5 100t-14.5 31q-27 19 -27 94z" />
    <glyph glyph-name="quotedblright" unicode="&#x201d;" horiz-adv-x="1160" 
d="M163 1094q156 262 156 387q0 15 -4 22q-1 33 -12 75q-11 44 -27 95q-35 111 -35 125q0 27 25 27q352 -1 352 -15q2 -12 3 -25q1 -11 1 -38q0 -218 -55 -264q-1 -1 -45 -105q-45 -106 -111 -172q-53 -29 -115 -56q-46 -21 -133 -56zM710 1094q156 262 156 387q0 15 -4 22
q-2 33 -12 75q-11 44 -27 95q-35 111 -35 125q0 27 25 27q79 0 196 -37q109 -34 109 -45q23 -105 22 -166q0 -74 -26 -94q-45 -66 -84 -121q-58 -79 -131 -172q-51 -30 -85 -47q-46 -25 -104 -49z" />
    <glyph glyph-name="uni202F" unicode="&#x202f;" 
 />
    <glyph glyph-name="guilsinglleft" unicode="&#x2039;" horiz-adv-x="1123" 
d="M-5 647l617 670l326 -336l-439 -340l604 -223l-206 -488z" />
    <glyph glyph-name="guilsinglright" unicode="&#x203a;" horiz-adv-x="1289" 
d="M161 453l604 223l-438 340l326 338l616 -672l-901 -717z" />
    <glyph glyph-name="uni205F" unicode="&#x205f;" 
 />
    <glyph glyph-name="filledbox" unicode="&#x25a0;" 
 />
    <glyph glyph-name="uni25FC" unicode="&#x25fc;" horiz-adv-x="1576" 
d="M20 0v1536h1536v-1536h-1536z" />
    <glyph glyph-name="uni25FD" unicode="&#x25fd;" 
 />
  </font>
</defs>
</svg>
